<svg width="422" height="408" viewBox="0 0 422 408" fill="none" xmlns="http://www.w3.org/2000/svg">
<path d="M406.376 201.548L341.85 153.107L370.107 84.9726L370.352 84.4833L334.021 110.6L338.914 64.9725L338.975 64.789L250.106 40.2017L228.149 6.01198L227.966 5.76733L211.635 57.8165L138.241 96.8992L138.179 96.9604L138.485 97.1439L211.819 58.0611H211.88L228.088 6.44012L249.862 40.4464H249.923L338.608 65.0337L333.654 111.211L369.618 85.3395L341.483 153.107V153.23L406.009 201.609L355.795 278.918V278.98L369.618 312.252L310.841 280.57L310.657 280.447L296.162 372.008L214.693 364.607L116.161 373.17L152.92 308.093H152.614L115.61 373.537L214.693 364.913L296.284 372.313L296.406 372.374L310.902 280.937L369.862 312.68L370.229 312.925L356.101 279.041L406.315 201.67L406.376 201.548Z" fill="#212121"/>
<path d="M57.3228 134.272L62.2157 70.4187L75.4268 84.6695L94.3871 33.599L116.773 61.9171L136.345 15.1279L136.528 15.3114L168.271 51.1526L168.21 51.2749L138.424 97.2078H138.363L89.3718 100.144L75.5491 85.22L57.3228 134.272ZM62.4604 71.0915L57.8121 132.07L75.3045 84.9142L62.4604 71.0915ZM75.6715 84.9142L89.4942 99.8378L138.241 96.902L167.843 51.1526L136.467 15.6784L116.895 62.5288L94.5095 34.2106L75.6715 84.9142Z" fill="#212121"/>
<path d="M44.1117 198.431L17.9954 152.804L80.6257 160.755L80.6868 160.51L17.4449 152.437L43.8671 198.553L44.1117 198.431Z" fill="#212121"/>
<path d="M406.682 201.058L406.315 201.303L387.599 123.26L387.661 123.138H387.599L370.107 84.85V84.7888L338.914 64.7887L322.829 36.654L322.767 36.2871L322.645 36.4706L284.235 20.6907H284.174L250.045 40.0791L181.421 6.13403L166.253 52.3728L166.192 52.5563L211.697 58.122L293.165 77.1435H293.287L322.584 37.1433L333.715 111.089L387.232 123.443L361.728 201.364V201.425L373.96 223.077L343.44 243.505L343.379 243.566L343.318 243.627L329.373 259.468L329.189 259.713L310.657 280.631L310.596 280.692L326.07 313.291L333.593 348.827L284.174 320.386L296.101 371.824L258.792 351.09L258.486 350.906L220.81 329.316L240.626 366.319L205.213 396.656L214.938 364.79L219.586 329.561L170.351 344.24L101.727 293.291L54.8151 257.083L54.6316 257.328L101.543 293.536L170.228 344.484L170.29 344.545L219.219 329.927L214.632 364.668L204.602 397.512L240.81 366.564L253.47 390.234L253.532 390.356L296.284 372.252L296.529 372.374L296.468 372.13L333.838 349.194L334.082 349.316L334.021 349.071L370.107 312.496L397.08 266.93L397.447 266.808L397.141 266.686L406.376 201.487L406.682 201.058ZM293.165 76.7766L211.758 57.7551L166.559 52.2504L181.543 6.56217L249.923 40.5073L249.984 40.5684L284.113 21.18L322.4 36.7764L293.165 76.7766ZM333.96 110.783L322.951 37.5103L338.67 65.0334V65.0945L369.862 85.0946L387.171 123.138L333.96 110.783ZM221.605 330.172L258.363 351.212L240.871 366.136L221.605 330.172ZM253.654 390.05L240.993 366.441L258.608 351.396L295.917 372.13L253.654 390.05ZM296.406 371.946L284.602 321.059L333.532 349.194L296.406 371.946ZM343.379 243.994L355.673 278.612L329.556 259.652L343.379 243.994ZM343.685 243.933L396.529 266.869L356.04 278.796L343.685 243.933ZM310.963 280.753L329.373 259.897L355.795 279.04L326.315 312.986L310.963 280.753ZM333.899 348.827L326.376 313.353L369.495 312.68L333.899 348.827ZM369.862 312.435L326.559 313.108L356.04 279.163L396.652 267.175L369.862 312.435ZM396.835 266.686L343.746 243.627L374.083 223.322L383.807 240.508L405.948 202.343L396.835 266.686ZM374.327 223.138L405.765 202.098L383.807 239.897L374.327 223.138ZM374.144 222.893L361.972 201.425L387.355 123.872L406.009 201.548L374.144 222.893Z" fill="#212121"/>
<path d="M170.29 344.301L170.228 344.239L149.127 355.432L119.708 333.536L60.075 310.6L101.543 293.597L152.675 308.215H152.736V307.909L101.604 293.352H101.543L59.7692 310.478L56.1607 272.068L54.8762 257.266L35.7324 243.566L44.1117 198.551L52.6744 157.266L80.5033 160.813L80.7479 160.508L52.7356 156.96L57.6897 132.923L17.873 152.373L31.2676 106.868L111.023 133.535L111.146 133.596L138.363 97.2046L138.424 96.8988L138.302 96.8376L111.023 133.229L31.2676 106.562L31.1452 106.501L17.506 152.924L5.15125 196.41H5.09009L5.15125 196.593L5.09009 196.716H5.15125L14.7537 241.364L27.1085 288.459L26.9862 288.52L27.1697 288.643L27.3532 289.254L27.4143 288.826L59.4023 310.661L59.2799 310.722L59.5857 310.845L75.6714 346.135V346.197L115.794 373.536L115.855 373.597L149.127 355.921L204.785 397.328L204.846 397.389L254.021 390.417L214.816 364.729L170.29 344.301ZM56.1607 271.701L54.8151 257.511L56.1607 271.701ZM54.6316 257.083L34.7538 249.193L35.7324 243.811L54.6316 257.083ZM34.448 249.071L16.0381 241.731L35.4266 243.75L34.448 249.071ZM57.3839 133.474L52.4909 156.899L18.24 152.557L57.3839 133.474ZM17.8119 152.801L52.4297 157.205L43.867 198.367L5.45706 196.41L17.8119 152.801ZM5.45706 196.716L43.867 198.673L35.4878 243.505L15.0596 241.364L5.45706 196.716ZM27.2309 287.787L15.1819 241.731L34.3869 249.377L27.2309 287.787ZM34.6927 249.499L54.5093 257.389L55.8548 271.823L27.4143 288.153L34.6927 249.499ZM27.5367 288.459L55.916 272.19L59.5246 310.355L27.5367 288.459ZM115.916 373.169L75.9161 345.952L60.0139 310.967L119.647 333.842L148.944 355.616L115.916 373.169ZM204.907 397.022L149.433 355.738L170.228 344.668L214.632 364.973L253.165 390.233L204.907 397.022Z" fill="#212121"/>
<path d="M80.6868 160.876L138.363 97.2064L138.302 96.8395L80.6868 160.387L57.7509 133.17L89.4941 100.081L166.436 52.5579L249.984 40.5089L293.042 77.0229L293.348 76.9617V76.9005L250.106 40.2031H250.045L166.375 52.2521H166.314L89.3107 99.8364L57.3839 133.17L80.5644 160.754L80.6868 160.876Z" fill="#212121"/>
<path d="M310.596 280.691L284.296 320.569L219.342 329.621L120.014 333.535L119.525 333.597L119.341 333.902L219.342 329.927L284.419 320.875H284.48L310.902 280.813V280.752L310.596 280.691Z" fill="#212121"/>
<path d="M80.6257 160.509L43.6836 198.613L44.3564 198.369L80.748 160.754L80.6257 160.509Z" fill="#212121"/>
<path d="M293.409 77.5119L341.361 152.986L341.972 153.414L293.043 76.3499L293.409 77.5119Z" fill="#212121"/>
<path d="M166.926 52.8015L248.088 86.3184L248.394 86.2573L248.455 86.1349L165.825 52.0063L166.926 52.8015Z" fill="#212121"/>
<path d="M334.021 110.907L333.96 110.846L293.287 76.8395L293.226 76.7783V77.1453L333.715 110.968L341.483 153.048L341.667 153.354L341.85 153.292L334.021 110.907Z" fill="#212121"/>
<path d="M361.544 201.366L361.911 201.549L362.095 201.427L361.544 201.366Z" fill="#212121"/>
<path d="M111.39 133.6L89.6165 99.9604L116.956 62.3455L166.436 52.5596H166.498L195.611 30.6634L211.635 57.9419L202.094 90.6026L138.179 96.9023L138.608 97.1469L201.911 90.9084L198.485 102.652L186.803 93.3549L186.865 93.783L198.363 102.957L198.73 102.835L202.216 90.8472L248.272 86.3212L293.348 77.0245L284.235 20.7551L228.027 5.95386H227.966L195.672 30.2353L181.605 6.25967L181.544 6.13734L136.345 15.1894L94.3871 33.6604H94.326L62.2158 70.5413L31.0841 106.505L30.9618 106.627L57.4451 133.233L57.5063 133.294L111.084 133.539L111.39 133.6ZM228.027 6.25967L283.99 21.061L292.981 76.841L248.21 86.0765L202.278 90.6026L211.819 57.9419L195.794 30.48L228.027 6.25967ZM57.6286 133.049L31.3899 106.688L62.4604 70.8471L94.5095 34.0274L136.467 15.5563L181.421 6.50432L195.427 30.4188L166.314 52.2538L116.711 62.1009L89.2495 99.8992L89.1884 99.9604L110.779 133.294L57.6286 133.049Z" fill="#212121"/>
<path d="M341.422 153.23L341.85 153.108L341.422 153.23Z" fill="#212121"/>
<path d="M219.281 329.318L219.036 329.563L152.858 307.973L152.675 308.217L218.853 329.808L169.984 344.364L204.541 396.964L160.504 388.034L116.1 373.233L119.831 333.722V333.661L101.788 293.6L101.36 293.416L119.525 333.722L115.733 373.355V373.478L160.443 388.34L205.213 397.392L170.473 344.548L219.342 329.93L219.464 329.991V329.93L219.525 329.869V329.746L219.281 329.318Z" fill="#212121"/>
<path d="M54.8151 257.146L44.234 198.736L44.0506 198.369L43.8059 198.247L54.5705 257.452L54.8151 257.146Z" fill="#212121"/>
<path d="M284.357 320.082L284.419 321.428L284.357 320.082Z" fill="#212121"/>
<path d="M390.107 158.369L387.538 123.261V123.017L341.544 153.048L341.483 153.109L361.605 201.243L361.789 201.549H362.095L341.85 153.231L387.294 123.567L389.801 158.43L406.009 201.427L361.789 206.259H361.728L343.318 243.507L343.379 243.812L343.501 243.874L361.911 206.565L406.193 201.733H406.438L390.107 158.369Z" fill="#212121"/>
<path d="M372.922 203.103C373.863 196.993 369.674 191.278 363.565 190.336C357.456 189.395 351.74 193.584 350.798 199.693C349.857 205.803 354.046 211.518 360.155 212.46C366.265 213.401 371.98 209.212 372.922 203.103Z" fill="#646464"/>
<path d="M76.0385 342.1C78.2403 342.223 79.8917 344.119 79.7694 346.259C79.647 348.461 77.751 350.113 75.6103 349.99C73.4085 349.868 71.7571 347.972 71.8794 345.831C72.0017 343.629 73.8366 341.978 76.0385 342.1Z" fill="#212121"/>
<path d="M333.897 353.095C336.093 353.055 337.84 351.243 337.8 349.048C337.76 346.853 335.949 345.105 333.753 345.145C331.558 345.185 329.811 346.997 329.851 349.192C329.89 351.387 331.702 353.135 333.897 353.095Z" fill="#212121"/>
<path d="M247.721 37.0827C249.495 35.7983 252.003 36.2265 253.226 38.0613C254.51 39.835 254.082 42.3427 252.247 43.5659C250.473 44.8504 247.966 44.4222 246.743 42.5874C245.519 40.8136 245.947 38.3671 247.721 37.0827Z" fill="#212121"/>
<path d="M390.013 126.351C391.683 124.925 391.881 122.416 390.455 120.746C389.03 119.076 386.521 118.878 384.851 120.303C383.181 121.729 382.982 124.238 384.408 125.908C385.833 127.578 388.343 127.776 390.013 126.351Z" fill="#212121"/>
<path d="M308.945 284.242C306.987 283.263 306.254 280.878 307.232 278.921C308.211 276.964 310.596 276.23 312.553 277.208C314.51 278.187 315.244 280.572 314.266 282.53C313.287 284.487 310.902 285.221 308.945 284.242Z" fill="#212121"/>
<path d="M11.0229 242.039C10.717 239.898 12.2461 237.88 14.3868 237.574C16.5275 237.268 18.5458 238.797 18.8516 240.938C19.1574 243.079 17.6284 245.097 15.4877 245.403C13.2859 245.709 11.3287 244.18 11.0229 242.039Z" fill="#212121"/>
<path d="M116.589 378.921C113.531 379.288 110.717 377.147 110.35 374.089C109.984 371.031 112.124 368.217 115.182 367.85C118.24 367.484 121.054 369.624 121.421 372.682C121.849 375.74 119.708 378.493 116.589 378.921Z" fill="#212121"/>
<path d="M67.7204 72.3759C66.803 75.3116 63.6837 77.0242 60.7479 76.1068C57.8121 75.1893 56.0996 72.07 57.017 69.1342C57.9344 66.1985 61.0537 64.4859 63.9895 65.4033C66.9253 66.3208 68.5767 69.4401 67.7204 72.3759Z" fill="#212121"/>
<path d="M119.647 339.347C122.755 339.347 125.274 336.827 125.274 333.72C125.274 330.612 122.755 328.093 119.647 328.093C116.54 328.093 114.02 330.612 114.02 333.72C114.02 336.827 116.54 339.347 119.647 339.347Z" fill="#212121"/>
<path d="M415.659 207.629C418.99 202.422 417.47 195.5 412.262 192.168C407.055 188.837 400.133 190.358 396.802 195.565C393.47 200.773 394.991 207.695 400.199 211.026C405.406 214.357 412.328 212.836 415.659 207.629Z" fill="#FF7130"/>
<path d="M255.428 82.8944C257.262 86.8699 255.55 91.5794 251.574 93.4143C247.599 95.2492 242.889 93.5366 241.054 89.5611C239.22 85.5855 240.932 80.876 244.908 79.0412C248.883 77.2063 253.593 78.9188 255.428 82.8944Z" fill="#212121"/>
<path d="M44.7464 206.348C49.0838 205.93 52.2611 202.075 51.843 197.738C51.4249 193.4 47.5698 190.223 43.2323 190.641C38.8949 191.059 35.7176 194.914 36.1357 199.252C36.5538 203.589 40.4089 206.766 44.7464 206.348Z" fill="#FFBA9A"/>
<path d="M223.078 336.735C226.908 334.659 228.331 329.87 226.254 326.04C224.178 322.209 219.389 320.787 215.559 322.863C211.728 324.939 210.306 329.728 212.382 333.559C214.458 337.389 219.247 338.811 223.078 336.735Z" fill="#212121"/>
<path d="M287.863 25.2494C290.254 23.2122 290.541 19.6221 288.504 17.2309C286.467 14.8396 282.877 14.5526 280.485 16.5898C278.094 18.6271 277.807 22.2171 279.844 24.6084C281.882 26.9996 285.472 27.2867 287.863 25.2494Z" fill="#212121"/>
<path d="M345.703 238.431C348.578 239.715 349.923 243.079 348.7 245.954C347.416 248.828 344.052 250.174 341.177 248.951C338.303 247.666 336.957 244.302 338.18 241.428C339.404 238.492 342.767 237.208 345.703 238.431Z" fill="#212121"/>
<path d="M334.266 150.295C335.856 146.197 340.443 144.24 344.541 145.83C348.639 147.42 350.596 152.007 349.006 156.105C347.416 160.203 342.829 162.16 338.731 160.57C334.694 158.98 332.676 154.392 334.266 150.295Z" fill="#212121"/>
<path d="M326.743 114.395C324.786 110.48 326.437 105.71 330.352 103.814C334.266 101.857 339.037 103.508 340.933 107.422C342.829 111.337 341.238 116.107 337.324 118.003C333.41 119.899 328.7 118.309 326.743 114.395Z" fill="#212121"/>
<path d="M208.053 404.382C212.047 402.638 213.87 397.987 212.125 393.994C210.381 390 205.73 388.177 201.737 389.922C197.743 391.666 195.92 396.317 197.665 400.31C199.409 404.303 204.06 406.127 208.053 404.382Z" fill="#D16A16"/>
<path d="M300.224 80.5576C302.215 76.6816 300.686 71.9258 296.81 69.9353C292.934 67.9448 288.179 69.4734 286.188 73.3493C284.198 77.2253 285.726 81.981 289.602 83.9715C293.478 85.962 298.234 84.4335 300.224 80.5576Z" fill="#212121"/>
<path d="M166.839 60.2502C171.189 59.9909 174.504 56.2546 174.245 51.905C173.986 47.5553 170.25 44.2394 165.9 44.4987C161.55 44.7581 158.234 48.4944 158.494 52.844C158.753 57.1937 162.489 60.5095 166.839 60.2502Z" fill="#646464"/>
<path d="M222.461 6.68755C222.155 3.62943 224.357 0.877122 227.476 0.571311C230.596 0.265499 233.287 2.46734 233.593 5.58662C233.898 8.64474 231.697 11.397 228.577 11.7029C225.519 12.0087 222.767 9.74566 222.461 6.68755Z" fill="#212121"/>
<path d="M289.675 322.71C290.755 319.797 289.269 316.558 286.356 315.477C283.442 314.397 280.204 315.882 279.123 318.796C278.042 321.71 279.528 324.948 282.442 326.029C285.355 327.11 288.594 325.624 289.675 322.71Z" fill="#212121"/>
<path d="M57.8121 314.149C55.8549 313.109 55.1821 310.724 56.1607 308.767C57.2004 306.809 59.5858 306.137 61.543 307.115C63.5002 308.155 64.1729 310.54 63.1944 312.497C62.1546 314.455 59.7693 315.189 57.8121 314.149Z" fill="#212121"/>
<path d="M8.88334 198.165C9.78947 196.165 8.90271 193.809 6.90271 192.903C4.90271 191.997 2.54682 192.883 1.64069 194.883C0.734563 196.883 1.62132 199.239 3.62132 200.145C5.62132 201.052 7.97721 200.165 8.88334 198.165Z" fill="#212121"/>
<path d="M393.859 158.962C394.164 156.788 392.649 154.778 390.474 154.473C388.3 154.168 386.29 155.683 385.985 157.858C385.68 160.032 387.196 162.042 389.37 162.347C391.544 162.652 393.554 161.136 393.859 158.962Z" fill="#212121"/>
<path d="M180.014 9.99144C177.996 9.19633 177.017 6.87216 177.813 4.8538C178.608 2.83544 180.932 1.85684 182.95 2.65195C184.969 3.44706 185.947 5.77123 185.152 7.78959C184.357 9.86911 182.033 10.8477 180.014 9.99144Z" fill="#212121"/>
<path d="M398.486 270.539C396.468 271.396 394.144 270.478 393.288 268.46C392.431 266.442 393.349 264.117 395.367 263.261C397.385 262.405 399.71 263.322 400.566 265.341C401.422 267.359 400.505 269.683 398.486 270.539Z" fill="#212121"/>
<path d="M29.9832 291.336C28.393 292.804 25.8853 292.743 24.4174 291.153C22.9495 289.563 23.0107 287.055 24.6009 285.587C26.1911 284.119 28.6988 284.18 30.1667 285.771C31.6346 287.361 31.5734 289.869 29.9832 291.336Z" fill="#212121"/>
<path d="M13.7752 152.926C13.5917 150.724 15.2431 148.828 17.3837 148.644C19.5856 148.461 21.4816 150.112 21.6651 152.253C21.8486 154.455 20.1972 156.351 18.0565 156.534C15.8547 156.779 13.9587 155.128 13.7752 152.926Z" fill="#212121"/>
<path d="M373.96 85.0349C373.899 87.2367 372.064 88.9493 369.924 88.8881C367.722 88.8269 366.009 86.9921 366.07 84.8514C366.131 82.6495 367.966 80.937 370.107 80.9982C372.309 80.9982 374.021 82.833 373.96 85.0349Z" fill="#212121"/>
<path d="M78.9743 164.18C77.0171 163.262 76.1608 160.877 77.1394 158.92C78.0568 156.963 80.4422 156.106 82.3994 157.085C84.3566 158.064 85.2128 160.388 84.2342 162.345C83.3168 164.302 80.9315 165.159 78.9743 164.18Z" fill="#212121"/>
<path d="M114.999 134.089C114.632 136.23 112.614 137.698 110.473 137.331C108.332 136.964 106.864 134.945 107.231 132.805C107.598 130.664 109.617 129.196 111.757 129.563C113.898 129.93 115.366 131.887 114.999 134.089Z" fill="#212121"/>
<path d="M91.2067 31.58C92.4911 29.8063 94.9376 29.3781 96.7113 30.6625C98.485 31.9469 98.9132 34.3934 97.6288 36.1671C96.3444 37.9409 93.8979 38.369 92.1242 37.0846C90.3505 35.8002 89.9223 33.3537 91.2067 31.58Z" fill="#212121"/>
<path d="M87.6593 103.504C85.7021 102.526 84.8459 100.202 85.8245 98.2444C86.8031 96.2872 89.1272 95.4309 91.0844 96.4095C93.0416 97.3881 93.8979 99.7123 92.9193 101.669C92.0019 103.627 89.6777 104.483 87.6593 103.504Z" fill="#212121"/>
<path d="M323.318 315.985C321.85 314.395 321.911 311.887 323.501 310.419C325.092 308.952 327.599 309.013 329.067 310.603C330.535 312.193 330.474 314.701 328.884 316.169C327.355 317.637 324.847 317.575 323.318 315.985Z" fill="#212121"/>
<path d="M354.817 275.249C356.896 274.637 359.098 275.8 359.771 277.879C360.382 279.959 359.22 282.16 357.141 282.833C355.061 283.506 352.859 282.283 352.187 280.203C351.514 278.063 352.737 275.861 354.817 275.249Z" fill="#212121"/>
<path d="M256.223 387.361C257.813 388.829 257.935 391.336 256.467 392.927C255 394.517 252.492 394.639 250.902 393.171C249.311 391.703 249.189 389.196 250.657 387.606C252.125 385.954 254.633 385.832 256.223 387.361Z" fill="#212121"/>
<path d="M140.932 99.9589C139.28 101.427 136.773 101.304 135.366 99.653C133.898 98.0017 134.02 95.494 135.672 94.0873C137.323 92.6194 139.831 92.7417 141.238 94.3931C142.705 96.0445 142.583 98.5521 140.932 99.9589Z" fill="#212121"/>
<path d="M372.431 309.501C374.144 310.847 374.388 313.354 373.043 315.067C371.697 316.779 369.19 317.024 367.477 315.679C365.765 314.333 365.52 311.825 366.865 310.113C368.211 308.4 370.719 308.094 372.431 309.501Z" fill="#212121"/>
<path d="M60.1974 130.234C61.8488 131.702 62.0323 134.149 60.5644 135.8C59.0965 137.452 56.65 137.635 54.9986 136.167C53.3472 134.699 53.1637 132.253 54.6316 130.601C56.0995 128.95 58.546 128.766 60.1974 130.234Z" fill="#212121"/>
<path d="M117.435 66.1472C119.605 65.8179 121.098 63.7911 120.769 61.6203C120.44 59.4495 118.413 57.9566 116.242 58.286C114.071 58.6153 112.578 60.6421 112.908 62.813C113.237 64.9838 115.264 66.4766 117.435 66.1472Z" fill="#212121"/>
<path d="M335.856 62.2212C337.324 60.631 339.832 60.5087 341.422 61.9766C343.012 63.4445 343.134 65.9521 341.667 67.5424C340.199 69.1326 337.691 69.2549 336.101 67.787C334.511 66.3803 334.388 63.8726 335.856 62.2212Z" fill="#212121"/>
<path d="M211.33 366.871C210.167 365.037 210.779 362.59 212.614 361.428C214.449 360.266 216.895 360.878 218.057 362.712C219.22 364.547 218.608 366.994 216.773 368.156C214.938 369.318 212.492 368.706 211.33 366.871Z" fill="#212121"/>
<path d="M155.06 309.686C154.204 310.97 152.43 311.276 151.146 310.419C149.861 309.563 149.556 307.789 150.412 306.505C151.268 305.221 153.042 304.915 154.326 305.771C155.611 306.689 155.916 308.401 155.06 309.686Z" fill="#212121"/>
<path d="M139.097 14.5747C139.525 16.0426 138.73 17.6328 137.262 18.0609C135.794 18.489 134.204 17.6939 133.776 16.226C133.348 14.7581 134.143 13.1679 135.611 12.7398C137.078 12.2505 138.608 13.1068 139.097 14.5747Z" fill="#212121"/>
<path d="M103.133 291.151C104.418 292.007 104.785 293.72 103.928 295.004C103.072 296.288 101.36 296.655 100.075 295.799C98.7908 294.943 98.4239 293.23 99.2801 291.946C100.075 290.662 101.849 290.295 103.133 291.151Z" fill="#212121"/>
<path d="M259.892 348.767C261.238 349.501 261.727 351.213 260.993 352.559C260.259 353.905 258.547 354.394 257.201 353.66C255.856 352.926 255.366 351.213 256.1 349.868C256.834 348.522 258.547 348.033 259.892 348.767Z" fill="#212121"/>
<path d="M213.042 55.4953C214.388 56.2292 214.938 57.9418 214.204 59.2873C213.47 60.6329 211.758 61.1834 210.412 60.4494C209.067 59.7155 208.516 58.0029 209.25 56.6574C209.984 55.2506 211.697 54.7613 213.042 55.4953Z" fill="#212121"/>
<path d="M324.358 34.5142C325.581 35.4928 325.764 37.2054 324.847 38.4286C323.868 39.6519 322.156 39.8354 320.932 38.9179C319.709 37.9393 319.526 36.2268 320.443 35.0035C321.422 33.7803 323.196 33.5356 324.358 34.5142Z" fill="#212121"/>
<path d="M184.173 94.392C183.745 92.9241 184.602 91.3339 186.07 90.9058C187.537 90.4776 189.128 91.3339 189.556 92.8018C189.984 94.2697 189.128 95.8599 187.66 96.2881C186.131 96.7162 184.602 95.8599 184.173 94.392Z" fill="#212121"/>
<path d="M383.746 243.016C385.3 243.016 386.56 241.756 386.56 240.202C386.56 238.648 385.3 237.389 383.746 237.389C382.192 237.389 380.933 238.648 380.933 240.202C380.933 241.756 382.192 243.016 383.746 243.016Z" fill="#212121"/>
<path d="M32.6131 109.133C31.2676 109.929 29.555 109.439 28.8211 108.094C28.026 106.748 28.5153 105.036 29.8608 104.302C31.2064 103.507 32.9189 103.996 33.6529 105.341C34.3868 106.626 33.8975 108.338 32.6131 109.133Z" fill="#212121"/>
<path d="M299.036 371.885C299.22 373.414 298.119 374.821 296.529 374.943C295 375.127 293.593 374.026 293.471 372.436C293.287 370.906 294.388 369.5 295.978 369.377C297.507 369.255 298.914 370.356 299.036 371.885Z" fill="#212121"/>
<path d="M60.1937 260.544C61.9833 257.52 60.9831 253.619 57.9598 251.829C54.9365 250.04 51.0349 251.04 49.2453 254.063C47.4558 257.086 48.4559 260.988 51.4793 262.778C54.5026 264.567 58.4042 263.567 60.1937 260.544Z" fill="#F99668"/>
<path d="M166.803 389.075C166.314 392.561 163.072 394.947 159.586 394.457C156.1 393.968 153.715 390.727 154.204 387.24C154.693 383.754 157.935 381.369 161.421 381.858C164.907 382.408 167.293 385.589 166.803 389.075Z" fill="#212121"/>
<path d="M174.632 339.839C177.201 342.224 177.323 346.261 174.877 348.83C172.491 351.399 168.455 351.521 165.886 349.075C163.317 346.689 163.195 342.653 165.641 340.084C168.027 337.515 172.063 337.393 174.632 339.839Z" fill="#212121"/>
</svg>
