<svg width="599" height="541" viewBox="0 0 599 541" fill="none" xmlns="http://www.w3.org/2000/svg">
<g opacity="0.7">
<path d="M129.265 173.436L160.926 247.65L102.387 292.528L101.931 292.83L146.452 288.377L119.401 325.445L119.256 325.574L183.925 391.301L185.846 431.889L185.883 432.193L226.05 395.282L309.153 398.133L309.236 398.11L309.063 397.799L226.013 394.978L225.96 394.948L186.113 431.549L184.26 391.212L184.207 391.181L119.696 325.545L147.076 288.031L102.994 292.455L161.244 247.834L161.305 247.728L129.613 173.567L211.755 131.722L211.785 131.669L216.451 95.9431L251.512 152.769L251.61 152.967L309.943 80.9212L376.796 128.065L466.409 169.915L402.037 207.894L402.302 208.047L467.07 169.873L376.949 127.8L309.99 80.5952L309.915 80.4811L251.642 152.421L216.453 95.45L216.257 95.0547L211.551 131.463L129.379 173.361L129.265 173.436Z" fill="#212121"/>
<path d="M397.915 406.229L361.751 459.081L357.435 440.134L315.479 474.882L310.252 439.165L269.908 469.9L269.841 469.649L260.271 422.738L260.385 422.663L309.147 397.777L309.2 397.808L353.095 419.761L357.604 439.596L397.915 406.229ZM361.875 458.376L396.39 407.891L357.663 439.983L361.875 458.376ZM357.345 439.8L352.836 419.964L309.153 398.134L260.641 422.952L270.077 469.362L310.452 438.574L315.679 474.291L357.345 439.8Z" fill="#212121"/>
<path d="M441.436 357.273L441.24 409.844L390.977 371.644L390.802 371.825L441.533 410.437L441.709 357.289L441.436 357.273Z" fill="#212121"/>
<path d="M128.755 173.706L129.195 173.677L106.382 250.623L106.267 250.698L106.32 250.728L102.325 292.633L102.295 292.686L119.309 325.603L119.172 358.011L119.041 358.359L119.239 358.262L144.613 391.132L144.666 391.163L183.916 391.436L226.374 455.146L262.63 422.686L262.774 422.558L226.149 394.985L165.106 337.778L165 337.717L119.628 357.71L146.961 288.105L106.791 250.647L167.839 195.918L167.87 195.865L168.102 170.998L204.747 168.567L204.831 168.544L204.914 168.522L224.911 161.776L225.193 161.656L251.701 152.807L251.784 152.784L254.683 116.815L265.936 82.2791L294.514 131.619L309.904 81.1094L331.847 117.72L332.02 118.032L353.854 155.568L355.194 113.614L401.03 105.048L376.676 127.782L355.035 155.967L405.014 167.873L438.97 246.307L461.493 301.12L461.774 301L439.251 246.187L405.242 167.722L405.22 167.639L355.537 155.833L376.879 128.041L401.988 104.612L355.157 113.31L356.027 86.481L356.036 86.3445L309.959 80.6469L309.808 80.4186L309.739 80.661L265.907 81.839L265.757 81.6108L265.687 81.8532L216.149 95.4852L170.007 121.46L169.628 121.383L169.831 121.642L129.234 173.488L128.755 173.706ZM164.923 338.096L225.912 395.272L262.304 422.639L226.482 454.714L184.236 391.127L184.214 391.043L144.964 390.77L119.604 358.119L164.923 338.096ZM146.596 288.248L119.494 357.208L119.643 325.513L119.673 325.46L102.66 292.543L106.691 250.943L146.596 288.248ZM353.593 154.429L332.279 117.828L354.89 113.65L353.593 154.429ZM355.777 86.5482L354.937 113.324L332.159 117.547L310.216 80.9363L355.777 86.5482ZM309.7 80.8505L294.479 130.822L266.172 81.9919L309.7 80.8505ZM205.045 168.174L211.707 132.047L224.844 161.525L205.045 168.174ZM204.749 168.074L170.453 121.788L211.481 131.704L204.749 168.074ZM251.497 152.548L225.125 161.405L211.815 131.615L254.318 116.958L251.497 152.548ZM265.671 82.1262L254.449 116.609L216.77 95.6322L265.671 82.1262ZM216.33 95.6605L254.168 116.729L211.664 131.387L170.5 121.462L216.33 95.6605ZM170.096 121.794L204.543 168.308L168.118 170.725L168.29 150.979L130.033 172.96L170.096 121.794ZM167.815 170.762L130.069 173.264L167.984 151.508L167.815 170.762ZM167.851 171.065L167.658 195.743L106.899 250.215L129.582 173.618L167.851 171.065Z" fill="#212121"/>
<path d="M405.098 167.852L405.121 167.936L428.991 168.793L443.52 202.465L483.696 252.145L439.282 246.136L402.31 207.911L402.257 207.88L402.104 208.145L439.107 246.317L439.16 246.348L483.9 252.404L467.82 287.472L461.532 300.932L471.261 322.369L441.496 357.164L413.439 388.636L391.112 371.65L390.747 371.792L413.233 388.871L396.924 407.21L441.131 410.274L406.778 442.985L351.041 380.013L350.966 379.899L309.2 397.807L308.994 398.041L309.069 398.155L350.889 380.278L406.626 443.25L406.701 443.364L441.724 409.981L474.167 378.498L474.22 378.529L474.258 378.339L474.373 378.264L474.32 378.233L488.328 334.765L501.176 287.802L501.312 287.811L501.215 287.613L501.362 286.992L501.094 287.332L484.31 252.428L484.446 252.436L484.242 252.178L487.957 213.572L487.988 213.519L466.911 169.781L466.888 169.697L429.236 168.369L401.738 104.681L401.716 104.597L355.643 86.0484L376.751 127.898L405.098 167.852ZM467.637 287.79L461.707 300.751L467.637 287.79ZM461.652 301.214L474.922 317.985L471.383 322.157L461.652 301.214ZM475.125 318.244L487.399 333.805L471.617 322.363L475.125 318.244ZM397.464 406.886L413.414 389.046L440.905 409.932L397.464 406.886ZM441.398 409.934L413.62 388.812L441.617 357.445L473.902 378.345L441.398 409.934ZM474.055 378.08L441.769 357.181L471.442 322.544L488.063 334.612L474.055 378.08ZM500.734 288.324L488.141 334.233L475.331 318.01L500.734 288.324ZM475.128 317.751L461.911 301.01L467.963 287.837L500.758 287.914L475.128 317.751ZM500.805 287.588L468.093 287.488L484.051 252.632L500.805 287.588ZM466.621 170.038L487.654 213.609L483.933 251.857L443.726 202.231L429.242 168.726L466.621 170.038ZM401.479 104.884L428.879 168.375L405.335 167.565L377.033 127.777L356.293 86.6354L401.479 104.884Z" fill="#212121"/>
<path d="M390.984 371.504L309.2 397.806L309.069 398.155L390.739 371.928L396.994 406.967L352.959 419.751L262.563 422.436L184.184 391.097L165.151 337.946L164.856 337.846L164.825 337.899L183.925 391.301L183.978 391.331L262.463 422.732L262.516 422.762L352.995 420.055L397.311 407.15L391.029 371.672L390.984 371.504Z" fill="#212121"/>
<path d="M251.785 152.786L294.5 131.401L355.278 156.039L443.256 202.313L443.71 202.504L444.022 202.331L355.431 155.774L294.547 131.075L294.494 131.044L251.581 152.527L251.551 152.58L251.785 152.786Z" fill="#212121"/>
<path d="M390.855 371.854L441.896 357.327L441.192 357.203L390.872 371.581L390.855 371.854Z" fill="#212121"/>
<path d="M165.078 337.339L161.288 248L160.973 247.323L164.815 338.529L165.078 337.339Z" fill="#212121"/>
<path d="M262.262 421.98L208.731 352.372L208.436 352.272L208.322 352.347L262.818 423.219L262.262 421.98Z" fill="#212121"/>
<path d="M146.604 288.112L146.627 288.196L164.848 337.983L164.87 338.067L165.053 337.749L146.9 288.212L161.213 247.886L161.207 247.529L161.017 247.49L146.604 288.112Z" fill="#212121"/>
<path d="M167.998 196.011L167.773 195.671L167.554 195.685L167.998 196.011Z" fill="#212121"/>
<path d="M350.755 379.776L352.792 419.795L310.307 438.701L262.563 422.435L262.51 422.405L226.349 426.811L226.111 395.175L250.704 371.66L309.206 398.162L308.957 397.736L251.016 371.487L259.854 363.03L265.322 376.922L265.484 376.521L260.113 362.826L259.734 362.749L250.721 371.387L208.573 352.279L164.887 337.792L144.644 391.079L185.921 432.002L185.974 432.032L226.082 427.151L226.277 454.948L226.269 455.085L269.938 469.845L315.51 474.827L315.563 474.858L361.812 458.973L406.754 443.394L406.921 443.349L397.289 407.066L397.267 406.983L350.989 379.982L350.755 379.776ZM186.074 431.737L145.009 390.937L165.113 338.135L208.503 352.522L250.545 371.569L225.952 395.083L226.099 426.878L186.074 431.737ZM397.038 407.133L406.581 443.082L361.753 458.586L315.588 474.448L270.016 469.466L226.558 454.828L226.386 427.114L262.516 422.761L310.397 439.035L353.079 420.031L353.162 420.009L351.131 380.346L397.038 407.133Z" fill="#212121"/>
<path d="M161.357 247.76L160.927 247.652L161.357 247.76Z" fill="#212121"/>
<path d="M355.179 156.333L355.513 156.243L402.03 208.03L402.311 207.91L355.794 156.123L405.394 167.951L401.767 105.12L435.439 134.872L466.494 169.892L443.507 202.244L443.477 202.297L439.071 246.013L439.351 246.385L443.772 202.397L466.873 169.97L466.934 169.864L435.645 134.638L401.399 104.413L405.062 167.547L355.432 155.772L355.357 155.658L355.326 155.711L355.242 155.734L355.181 155.84L355.179 156.333Z" fill="#212121"/>
<path d="M461.525 301.069L441.483 356.943L441.458 357.353L441.609 357.581L461.889 300.926L461.525 301.069Z" fill="#212121"/>
<path d="M294.203 131.793L294.822 130.598L294.203 131.793Z" fill="#212121"/>
<path d="M121.765 218.965L106.436 250.653L106.313 250.865L161.161 247.855L161.244 247.833L167.885 196.085L167.879 195.729L167.614 195.576L160.988 247.543L106.801 250.511L122.06 219.065L129.522 173.725L170.234 191.65L170.287 191.681L204.854 168.628L204.954 168.333L204.879 168.219L170.281 191.324L129.516 173.368L129.304 173.246L121.765 218.965Z" fill="#212121"/>
<path d="M159.016 188.819C155.146 193.639 155.916 200.683 160.735 204.553C165.555 208.422 172.599 207.652 176.469 202.831C180.339 198.011 179.57 190.967 174.75 187.097C169.931 183.228 162.886 183.999 159.016 188.819Z" fill="#212121"/>
<path d="M485.622 216.884C483.776 215.677 483.294 213.21 484.47 211.417C485.677 209.571 488.144 209.089 489.937 210.266C491.783 211.472 492.265 213.94 491.089 215.733C489.882 217.578 487.467 218.091 485.622 216.884Z" fill="#212121"/>
<path d="M267.805 78.4337C265.884 77.3705 263.465 78.0656 262.402 79.9863C261.339 81.9069 262.035 84.3257 263.956 85.3889C265.877 86.4521 268.296 85.757 269.359 83.8363C270.422 81.9157 269.727 79.4969 267.805 78.4337Z" fill="#212121"/>
<path d="M184.432 395.194C182.253 395.42 180.296 393.795 180.154 391.595C179.928 389.417 181.553 387.459 183.753 387.317C185.932 387.092 187.889 388.716 188.031 390.917C188.204 393.064 186.61 394.969 184.432 395.194Z" fill="#212121"/>
<path d="M105.836 246.749C103.676 247.149 102.248 249.222 102.648 251.38C103.047 253.538 105.122 254.964 107.281 254.564C109.441 254.165 110.868 252.091 110.469 249.933C110.07 247.775 107.995 246.35 105.836 246.749Z" fill="#212121"/>
<path d="M254.989 150.539C256.195 152.365 255.638 154.798 253.812 156.003C251.985 157.209 249.552 156.652 248.347 154.826C247.141 153 247.698 150.567 249.524 149.361C251.35 148.155 253.783 148.712 254.989 150.539Z" fill="#212121"/>
<path d="M491.896 336.048C491.09 338.055 488.757 339.038 486.75 338.232C484.744 337.427 483.76 335.094 484.566 333.087C485.371 331.08 487.704 330.097 489.711 330.902C491.771 331.738 492.701 334.041 491.896 336.048Z" fill="#212121"/>
<path d="M468.913 164.724C471.745 165.935 473.111 169.195 471.9 172.027C470.689 174.858 467.428 176.224 464.597 175.013C461.765 173.802 460.399 170.542 461.61 167.71C462.768 164.848 465.998 163.535 468.913 164.724Z" fill="#212121"/>
<path d="M357.962 454.635C360.225 452.551 363.782 452.628 365.866 454.89C367.949 457.152 367.873 460.71 365.611 462.793C363.348 464.877 359.791 464.8 357.707 462.538C355.624 460.276 355.753 456.749 357.962 454.635Z" fill="#212121"/>
<path d="M446.479 197.465C443.788 195.912 440.347 196.834 438.793 199.524C437.24 202.215 438.162 205.656 440.853 207.209C443.544 208.763 446.984 207.841 448.538 205.15C450.092 202.46 449.17 199.019 446.479 197.465Z" fill="#212121"/>
<path d="M124.266 163.528C118.777 166.372 116.634 173.127 119.478 178.616C122.322 184.105 129.077 186.248 134.565 183.404C140.054 180.56 142.198 173.805 139.354 168.317C136.51 162.828 129.755 160.684 124.266 163.528Z" fill="#646464"/>
<path d="M200.664 351.67C201.062 347.311 204.9 344.089 209.26 344.487C213.62 344.886 216.842 348.724 216.443 353.083C216.045 357.443 212.207 360.665 207.847 360.266C203.487 359.868 200.265 356.03 200.664 351.67Z" fill="#212121"/>
<path d="M444.844 350.096C440.879 348.289 436.2 350.038 434.393 354.003C432.587 357.967 434.337 362.646 438.303 364.453C442.269 366.259 446.948 364.51 448.754 360.546C450.56 356.581 448.81 351.902 444.844 350.096Z" fill="#F4AF8F"/>
<path d="M355.598 148.011C351.243 147.894 347.617 151.33 347.5 155.686C347.383 160.041 350.819 163.667 355.174 163.784C359.53 163.902 363.156 160.466 363.273 156.11C363.39 151.754 359.954 148.129 355.598 148.011Z" fill="#F4AF8F"/>
<path d="M143.75 385.37C140.661 385.939 138.617 388.905 139.186 391.994C139.755 395.084 142.72 397.127 145.81 396.559C148.899 395.99 150.943 393.024 150.374 389.935C149.806 386.845 146.84 384.802 143.75 385.37Z" fill="#212121"/>
<path d="M200.25 171.833C198.403 169.284 198.919 165.698 201.416 163.82C203.965 161.973 207.551 162.49 209.428 164.986C211.276 167.536 210.759 171.121 208.263 172.999C205.736 174.93 202.18 174.36 200.25 171.833Z" fill="#212121"/>
<path d="M166.087 253.879C162.661 256.632 157.711 256.034 154.957 252.608C152.204 249.182 152.802 244.232 156.228 241.478C159.654 238.725 164.604 239.323 167.358 242.749C170.058 246.144 169.513 251.126 166.087 253.879Z" fill="#212121"/>
<path d="M154.651 288.734C154.389 293.102 150.574 296.408 146.236 296.092C141.868 295.83 138.562 292.015 138.878 287.678C139.193 283.34 142.955 280.004 147.292 280.319C151.63 280.634 154.913 284.366 154.651 288.734Z" fill="#F1C1AA"/>
<path d="M402.435 96.9405C398.105 96.4545 394.2 99.571 393.714 103.901C393.228 108.232 396.345 112.136 400.675 112.622C405.005 113.108 408.91 109.992 409.396 105.661C409.882 101.331 406.765 97.4265 402.435 96.9405Z" fill="white"/>
<path d="M160.698 331.297C157.036 333.659 155.982 338.541 158.343 342.203C160.705 345.865 165.587 346.919 169.249 344.558C172.911 342.196 173.965 337.314 171.604 333.652C169.242 329.99 164.359 328.936 160.698 331.297Z" fill="#FF9C6F"/>
<path d="M266.06 415.577C262.163 413.627 257.424 415.204 255.474 419.1C253.524 422.996 255.102 427.735 258.998 429.685C262.895 431.635 267.634 430.058 269.584 426.162C271.534 422.266 269.956 417.527 266.06 415.577Z" fill="#212121"/>
<path d="M191.108 434.15C189.844 436.951 186.562 438.234 183.708 436.939C180.854 435.644 179.624 432.392 180.919 429.538C182.183 426.737 185.465 425.455 188.319 426.75C191.12 428.014 192.372 431.349 191.108 434.15Z" fill="#212121"/>
<path d="M290.913 126.864C288.52 128.848 288.187 132.395 290.169 134.787C292.151 137.179 295.698 137.51 298.092 135.526C300.485 133.543 300.818 129.996 298.836 127.604C296.854 125.212 293.307 124.881 290.913 126.864Z" fill="#212121"/>
<path d="M487.43 250.203C488.606 252.082 487.996 254.485 486.169 255.69C484.29 256.865 481.888 256.255 480.682 254.429C479.507 252.55 480.117 250.148 481.943 248.942C483.822 247.767 486.255 248.324 487.43 250.203Z" fill="#212121"/>
<path d="M471.813 375.118C470.028 376.397 469.617 378.88 470.895 380.664C472.173 382.448 474.657 382.857 476.443 381.578C478.228 380.298 478.639 377.815 477.361 376.031C476.082 374.247 473.599 373.838 471.813 375.118Z" fill="#212121"/>
<path d="M118.812 216.576C117.461 218.307 117.768 220.805 119.499 222.156C121.229 223.507 123.727 223.2 125.078 221.469C126.43 219.738 126.123 217.24 124.392 215.889C122.662 214.538 120.164 214.846 118.812 216.576Z" fill="#212121"/>
<path d="M229.52 452.514C230.87 454.212 230.555 456.714 228.858 458.064C227.16 459.414 224.658 459.1 223.307 457.402C221.957 455.704 222.272 453.202 223.969 451.852C225.698 450.449 228.2 450.763 229.52 452.514Z" fill="#212121"/>
<path d="M170.592 117.634C172.768 117.902 174.323 119.859 174.055 122.035C173.787 124.21 171.831 125.764 169.655 125.497C167.479 125.229 165.925 123.273 166.192 121.097C166.46 118.921 168.416 117.367 170.592 117.634Z" fill="#212121"/>
<path d="M500.124 283.876C502.235 283.4 504.376 284.707 504.852 286.818C505.328 288.929 504.022 291.07 501.911 291.546C499.799 292.022 497.658 290.715 497.182 288.604C496.706 286.493 498.013 284.352 500.124 283.876Z" fill="#212121"/>
<path d="M444.955 411.845C444.013 413.843 441.635 414.659 439.69 413.748C437.691 412.806 436.875 410.428 437.786 408.483C438.728 406.484 441.106 405.668 443.052 406.579C445.081 407.468 445.897 409.846 444.955 411.845Z" fill="#212121"/>
<path d="M99.0808 290.549C100.235 288.673 102.68 288.107 104.504 289.231C106.38 290.385 106.946 292.83 105.822 294.654C104.669 296.53 102.223 297.096 100.4 295.972C98.4926 294.871 97.9269 292.426 99.0808 290.549Z" fill="#212121"/>
<path d="M394.118 369.501C395.354 371.274 394.903 373.767 393.077 374.973C391.304 376.209 388.811 375.758 387.605 373.932C386.399 372.106 386.82 369.665 388.646 368.46C390.419 367.223 392.913 367.675 394.118 369.501Z" fill="#212121"/>
<path d="M347.874 377.548C349.262 375.877 351.744 375.615 353.414 377.004C355.085 378.392 355.347 380.874 353.959 382.544C352.571 384.214 350.089 384.476 348.418 383.088C346.748 381.7 346.455 379.271 347.874 377.548Z" fill="#212121"/>
<path d="M317.225 478.219C315.226 479.113 312.893 478.26 311.999 476.261C311.105 474.262 311.958 471.929 313.957 471.035C315.956 470.141 318.289 470.994 319.183 472.993C320.077 474.992 319.224 477.325 317.225 478.219Z" fill="#212121"/>
<path d="M356.26 417.702C357.465 419.528 357.045 421.969 355.219 423.175C353.393 424.38 350.952 423.96 349.746 422.134C348.54 420.308 348.961 417.867 350.787 416.661C352.56 415.425 355.001 415.845 356.26 417.702Z" fill="#212121"/>
<path d="M258.413 115.862C258.889 117.973 257.583 120.115 255.471 120.591C253.36 121.067 251.219 119.76 250.742 117.649C250.266 115.537 251.573 113.396 253.684 112.92C255.743 112.414 257.884 113.72 258.413 115.862Z" fill="#212121"/>
<path d="M210.768 135.39C208.661 134.88 207.335 132.773 207.792 130.636C208.302 128.529 210.41 127.203 212.547 127.66C214.684 128.117 215.979 130.278 215.522 132.415C215.035 134.605 212.874 135.9 210.768 135.39Z" fill="#212121"/>
<path d="M352.207 87.5961C351.564 85.5298 352.712 83.2971 354.778 82.6539C356.845 82.0107 359.077 83.1586 359.721 85.2248C360.364 87.2911 359.216 89.5238 357.15 90.167C355.053 90.8631 352.82 89.7153 352.207 87.5961Z" fill="#212121"/>
<path d="M308.351 394.136C310.515 393.691 312.626 395.051 313.018 397.184C313.464 399.348 312.104 401.459 309.971 401.851C307.807 402.297 305.696 400.937 305.303 398.804C304.858 396.639 306.218 394.529 308.351 394.136Z" fill="#212121"/>
<path d="M212.638 96.9191C211.827 94.8974 212.869 92.6034 214.891 91.793C216.913 90.9827 219.207 92.0247 220.017 94.0464C220.828 96.068 219.786 98.3621 217.764 99.1724C215.742 99.9827 213.417 98.9937 212.638 96.9191Z" fill="#212121"/>
<path d="M393.407 408.286C392.71 406.189 393.775 403.979 395.872 403.283C397.968 402.587 400.179 403.651 400.875 405.748C401.571 407.845 400.507 410.055 398.41 410.751C396.313 411.447 394.103 410.383 393.407 408.286Z" fill="#212121"/>
<path d="M311.795 435.169C309.75 434.368 307.443 435.377 306.643 437.421C305.843 439.465 306.853 441.771 308.897 442.571C310.942 443.371 313.249 442.363 314.049 440.319C314.849 438.275 313.839 435.969 311.795 435.169Z" fill="#212121"/>
<path d="M120.673 329.357C118.607 330 116.374 328.852 115.731 326.785C115.087 324.719 116.235 322.486 118.302 321.843C120.368 321.199 122.601 322.347 123.245 324.414C123.918 326.427 122.77 328.66 120.673 329.357Z" fill="#212121"/>
<path d="M380.841 127.788C380.93 129.958 379.177 131.77 377.007 131.859C374.837 131.948 373.024 130.195 372.935 128.025C372.846 125.855 374.599 124.043 376.769 123.954C378.939 123.865 380.752 125.618 380.841 127.788Z" fill="#212121"/>
<path d="M400.979 205.449C402.362 204.765 404.051 205.387 404.735 206.77C405.419 208.153 404.797 209.842 403.414 210.525C402.03 211.209 400.342 210.588 399.658 209.204C399.005 207.768 399.596 206.133 400.979 205.449Z" fill="#212121"/>
<path d="M267.25 469.001C267.613 467.516 269.096 466.537 270.581 466.9C272.066 467.263 273.045 468.746 272.682 470.231C272.319 471.715 270.836 472.695 269.351 472.331C267.836 472.021 266.94 470.516 267.25 469.001Z" fill="#212121"/>
<path d="M436.683 247.46C435.999 246.077 436.537 244.411 437.921 243.727C439.304 243.043 440.97 243.581 441.654 244.964C442.338 246.348 441.8 248.014 440.417 248.698C439.086 249.412 437.367 248.843 436.683 247.46Z" fill="#212121"/>
<path d="M329.733 119.184C328.935 117.876 329.368 116.149 330.676 115.351C331.984 114.553 333.711 114.985 334.509 116.293C335.307 117.601 334.875 119.328 333.567 120.126C332.259 120.925 330.532 120.492 329.733 119.184Z" fill="#212121"/>
<path d="M223.671 396.593C222.873 395.285 223.252 393.528 224.56 392.73C225.868 391.932 227.626 392.311 228.424 393.619C229.222 394.927 228.843 396.684 227.535 397.482C226.196 398.333 224.469 397.901 223.671 396.593Z" fill="#212121"/>
<path d="M116.779 359.102C116.209 357.643 116.906 356.069 118.312 355.469C119.771 354.899 121.345 355.596 121.946 357.002C122.516 358.46 121.818 360.035 120.413 360.635C118.954 361.205 117.296 360.53 116.779 359.102Z" fill="#212121"/>
<path d="M268.119 377.339C267.756 378.823 266.219 379.772 264.735 379.409C263.25 379.046 262.301 377.51 262.664 376.025C263.027 374.54 264.563 373.592 266.048 373.955C267.586 374.348 268.482 375.854 268.119 377.339Z" fill="#212121"/>
<path d="M169.596 148.841C168.251 148.064 166.531 148.525 165.754 149.87C164.978 151.215 165.439 152.935 166.784 153.712C168.129 154.489 169.849 154.028 170.626 152.683C171.402 151.338 170.941 149.618 169.596 148.841Z" fill="#212121"/>
<path d="M406.745 440.355C408.308 440.339 409.546 441.619 409.509 443.151C409.524 444.713 408.245 445.951 406.713 445.913C405.151 445.929 403.913 444.65 403.95 443.118C403.956 441.639 405.236 440.401 406.745 440.355Z" fill="#212121"/>
<path d="M307.394 79.5911C307.999 78.1758 309.655 77.5083 311.093 78.1972C312.508 78.8026 313.176 80.4588 312.487 81.8965C311.882 83.3118 310.226 83.9793 308.788 83.2904C307.403 82.6321 306.735 80.9759 307.394 79.5911Z" fill="#212121"/>
<path d="M458.565 295.438C455.503 297.161 454.419 301.04 456.142 304.102C457.866 307.163 461.745 308.248 464.806 306.524C467.868 304.801 468.952 300.922 467.229 297.86C465.505 294.799 461.626 293.714 458.565 295.438Z" fill="#212121"/>
<path d="M430.504 130.825C432.671 128.051 436.67 127.607 439.444 129.773C442.218 131.939 442.663 135.938 440.496 138.712C438.33 141.486 434.331 141.931 431.557 139.764C428.813 137.545 428.338 133.599 430.504 130.825Z" fill="#212121"/>
<path d="M399.107 169.548C398.075 166.198 399.987 162.642 403.389 161.641C406.739 160.61 410.295 162.522 411.296 165.924C412.328 169.273 410.416 172.829 407.014 173.83C403.664 174.862 400.108 172.95 399.107 169.548Z" fill="#212121"/>
</g>
</svg>
