<svg width="536" height="512" viewBox="0 0 536 512" fill="none" xmlns="http://www.w3.org/2000/svg">
<g opacity="0.7">
<path d="M330.673 441.224L356.788 364.882L430.321 370.687L430.862 370.769L394.793 344.293L439.697 334.839L439.89 334.84L435.795 242.724L461.52 211.272L461.696 211.021L407.148 211.585L347.287 153.87L347.21 153.831L347.13 154.179L406.972 211.835L406.991 211.893L461.094 211.346L435.487 242.567L435.506 242.625L439.544 334.567L394.098 344.134L429.821 370.335L356.675 364.533L356.559 364.571L330.501 440.893L241.454 417.043L241.396 417.062L214.028 440.495L225.984 374.803L226.044 374.59L134.488 389.115L116.337 309.351L77.7278 218.294L150.981 233.13L150.887 232.839L77.2085 217.884L116.046 309.445L134.235 389.326L134.215 389.461L225.654 374.974L213.696 440.86L213.577 441.285L241.432 417.372L330.537 441.203L330.673 441.224Z" fill="#212121"/>
<path d="M286.731 88.4689L348.967 73.3792L339.5 90.3489L393.929 92.5894L373.92 122.633L424.468 126.779L424.35 127.01L400.08 168.28L399.945 168.259L347.054 154.135L347.035 154.077L329.096 108.395L339.014 90.6355L286.731 88.4689ZM348.403 73.8199L288.976 88.2535L339.229 90.3082L348.403 73.8199ZM339.343 90.6572L329.424 108.417L347.288 153.866L399.948 167.872L423.982 127.066L373.377 122.939L393.385 92.8948L339.343 90.6572Z" fill="#212121"/>
<path d="M221.63 95.7433L256.945 56.8L268.748 118.818L269 118.801L257.124 56.1631L221.438 95.5485L221.63 95.7433Z" fill="#212121"/>
<path d="M331.233 441.363L330.887 441.09L399.319 399.161L399.454 399.181L399.435 399.123L430.438 370.649L430.496 370.63L439.872 334.782L461.654 310.786L461.984 310.614L461.772 310.554L464.902 269.147L464.883 269.089L435.893 242.628L446.956 166.871L398.293 166.742L398.1 166.741L406.877 211.737L413.977 295.095L414.015 295.211L461.113 310.704L394.233 344.154L399.031 398.868L317.042 398.706L316.984 398.725L300.176 417.053L271.312 394.344L271.235 394.305L271.158 394.266L251.781 385.902L251.492 385.803L225.869 374.647L225.792 374.608L199.575 399.403L168.107 417.545L179.873 361.753L134.644 389L142.826 347.108L142.906 346.761L151.789 304.255L122.726 334.542L82.9269 310.244L116.238 309.64L151.178 303.168L121.995 260.883L149.229 179.869L169.158 124.06L168.869 123.962L148.939 179.77L121.725 260.842L121.686 260.919L150.716 302.932L116.26 309.311L81.9235 309.927L122.551 334.792L103.955 354.151L103.858 354.247L134.293 389.307L134.253 389.577L134.467 389.443L167.833 417.891L167.792 418.161L168.006 418.027L213.947 441.036L265.62 452.598L265.849 452.91L265.871 452.581L330.731 441.205L331.233 441.363ZM414.326 294.981L407.245 211.682L398.504 166.995L446.587 167.119L435.448 242.644L435.408 242.721L464.399 269.182L461.405 310.416L414.326 294.981ZM394.599 344.292L460.878 311.167L439.563 334.625L439.505 334.644L430.13 370.492L399.303 398.716L394.599 344.292ZM151.221 305.276L142.577 346.739L122.977 334.718L151.221 305.276ZM104.186 354.269L122.724 334.929L142.479 347.028L134.296 388.92L104.186 354.269ZM134.622 389.329L179.366 362.369L167.739 417.6L134.622 389.329ZM270.828 394.438L241.707 416.832L251.663 386.133L270.828 394.438ZM270.98 394.709L265.508 452.056L241.646 417.238L270.98 394.709ZM225.847 374.975L251.374 386.035L241.338 417.081L199.941 399.541L225.847 374.975ZM168.201 417.835L199.611 399.713L213.583 440.511L168.201 417.835ZM213.929 440.785L199.9 399.812L241.297 417.352L265.255 452.267L213.929 440.785ZM265.777 452.29L271.29 394.673L299.981 417.245L286.643 431.807L329.784 441.062L265.777 452.29ZM300.231 417.421L329.96 440.812L287.225 431.618L300.231 417.421ZM300.407 417.17L317.06 398.958L398.661 399.117L330.559 440.875L300.407 417.17Z" fill="#212121"/>
<path d="M121.919 260.842L121.958 260.765L104.789 244.158L116.516 209.411L119.89 145.608L148.882 179.787L150.79 232.932L150.809 232.991L151.099 232.896L149.133 179.769L149.114 179.711L119.912 145.279L155.324 129.971L169.003 124.173L176.112 101.732L221.513 95.7818L263.422 91.16L268.653 118.722L269.019 118.86L263.732 91.1236L288.123 88.403L257.315 56.5511L304.731 55.2195L304.031 139.312L304.011 139.447L347.035 154.079L347.345 154.042L347.365 153.907L304.322 139.218L305.022 55.1249L305.043 54.9897L256.678 56.3723L211.502 58.0687L211.484 58.0105L211.328 58.1254L211.193 58.1051L211.212 58.1632L171.72 81.1002L130.753 107.411L130.657 107.314L130.597 107.526L130.072 107.89L130.498 107.815L119.624 144.987L119.528 144.89L119.506 145.218L90.9182 171.427L90.86 171.446L77.2658 218.056L77.2265 218.133L104.324 244.31L82.1551 310.043L82.1158 310.12L103.951 354.729L116.259 309.502L121.919 260.842ZM155.673 129.858L168.751 124.191L155.673 129.858ZM169.101 123.884L170.459 102.541L175.88 101.807L169.101 123.884ZM170.48 102.212L171.768 82.4351L175.843 101.498L170.48 102.212ZM287.505 88.2823L263.714 90.872L257.254 56.9568L287.505 88.2823ZM256.889 56.6253L263.405 90.9084L221.612 95.4924L211.597 58.3595L256.889 56.6253ZM211.306 58.4541L221.321 95.587L176.095 101.48L171.815 81.391L211.306 58.4541ZM131.43 107.319L171.503 81.6208L170.171 102.249L131.43 107.319ZM170.149 102.577L168.773 123.862L155.462 129.605L131.138 107.607L170.149 102.577ZM130.885 107.818L155.132 129.777L119.952 145.009L130.885 107.818ZM77.6526 218.059L91.1683 171.603L119.522 145.663L116.206 209.447L104.558 244.04L77.6526 218.059ZM82.4837 310.064L104.593 244.544L121.551 260.897L115.969 309.403L103.861 353.858L82.4837 310.064Z" fill="#212121"/>
<path d="M268.652 118.917L347.035 154.08L347.365 153.909L269.117 118.766L287.909 88.5382L329.191 108.495L398.176 166.973L435.467 242.702L414.056 294.94L414.208 295.212L414.266 295.193L435.795 242.723L435.777 242.665L398.448 166.82L398.429 166.762L329.367 108.245L287.796 88.1892L268.73 118.763L268.652 118.917Z" fill="#212121"/>
<path d="M225.792 374.606L179.737 361.925L151.045 302.952L116.611 209.702L116.401 209.255L116.054 209.175L150.754 303.046L179.484 362.136L179.503 362.194L225.771 374.934L225.829 374.915L225.792 374.606Z" fill="#212121"/>
<path d="M268.981 118.743L221.323 95.3941L221.764 95.9582L268.786 118.935L268.981 118.743Z" fill="#212121"/>
<path d="M413.704 295.44L356.755 364.376L356.537 365.09L414.695 294.732L413.704 295.44Z" fill="#212121"/>
<path d="M398.095 167.513L391.315 255.059L391.468 255.331L391.603 255.351L398.51 166.221L398.095 167.513Z" fill="#212121"/>
<path d="M394.503 344.385L394.542 344.308L414.306 295.115L414.345 295.038L413.996 295.151L394.35 344.113L356.735 364.51L356.5 364.779L356.615 364.935L394.503 344.385Z" fill="#212121"/>
<path d="M316.985 398.53L316.924 398.934L317.097 399.071L316.985 398.53Z" fill="#212121"/>
<path d="M304.087 139.681L329.345 108.573L373.57 122.943L398.176 166.973L398.195 167.031L428.019 187.947L407.032 211.621L373.022 212.646L347.269 153.811L347.169 154.294L372.674 212.566L360.448 212.94L365.677 198.955L365.289 199.146L360.119 212.918L360.349 213.229L372.827 212.838L391.371 255.237L414.15 295.23L464.844 269.165L461.541 211.135L461.522 211.077L428.445 187.873L446.897 167.082L446.994 166.986L424.41 126.801L393.872 92.6105L393.853 92.5523L348.851 73.4189L305.024 54.9324L304.87 54.8539L287.756 88.2658L287.717 88.3429L304.05 139.371L304.087 139.681ZM461.25 211.23L464.478 269.027L414.211 294.824L391.585 255.103L373.079 212.82L407.089 211.796L428.251 188.065L461.25 211.23ZM287.987 88.3836L304.944 55.28L348.635 73.7461L393.56 92.8403L424.099 127.031L446.607 166.983L428.195 187.697L398.429 166.762L373.727 122.634L329.29 108.205L329.213 108.166L304.188 139.005L287.987 88.3836Z" fill="#212121"/>
<path d="M356.541 364.51L356.789 364.879L356.541 364.51Z" fill="#212121"/>
<path d="M151.317 302.798L151.008 302.641L151.079 233.031L150.79 232.932L150.719 302.542L121.766 260.569L82.4289 309.695L77.3051 265.056L77.6517 218.252L116.38 209.583L116.438 209.564L148.957 180.019L148.999 179.555L116.285 209.292L77.4219 217.94L77.3056 217.978L76.9954 265.092L82.2297 310.468L121.743 261.091L150.754 303.045L150.734 303.18L150.792 303.161L150.869 303.201L150.985 303.163L151.317 302.798Z" fill="#212121"/>
<path d="M169.102 124.078L221.377 95.9559L221.669 95.6679L221.71 95.3975L168.735 123.94L169.102 124.078Z" fill="#212121"/>
<path d="M180.221 361.832L178.962 362.306L180.221 361.832Z" fill="#212121"/>
<path d="M366.708 412.399L399.3 399.102L399.532 399.026L356.753 364.572L356.676 364.533L317.122 398.551L316.888 398.82L316.982 399.111L356.673 364.919L398.933 398.964L366.555 412.127L330.677 440.835L312.409 400.277L312.39 400.218L271.276 394.228L271.004 394.38L270.984 394.516L312.156 400.487L330.442 441.104L330.518 441.337L366.708 412.399Z" fill="#212121"/>
<path d="M318.851 409.884C324.953 408.89 329.093 403.14 328.1 397.039C327.106 390.939 321.355 386.8 315.253 387.793C309.152 388.787 305.011 394.538 306.005 400.638C306.998 406.738 312.75 410.878 318.851 409.884Z" fill="#646464"/>
<path d="M94.87 170.53C95.4345 172.662 94.1418 174.819 92.0681 175.364C89.9362 175.929 87.7793 174.636 87.2337 172.563C86.6692 170.431 87.9619 168.274 90.0357 167.728C92.1676 167.164 94.3055 168.398 94.87 170.53Z" fill="#212121"/>
<path d="M164.143 419.152C164.86 421.228 167.123 422.329 169.198 421.613C171.273 420.896 172.374 418.633 171.657 416.558C170.941 414.482 168.678 413.381 166.603 414.097C164.528 414.814 163.426 417.077 164.143 419.152Z" fill="#212121"/>
<path d="M438.024 239.49C439.794 240.78 440.162 243.297 438.795 245.028C437.506 246.798 434.988 247.166 433.257 245.799C431.487 244.509 431.119 241.992 432.486 240.261C433.795 238.55 436.254 238.2 438.024 239.49Z" fill="#212121"/>
<path d="M397.131 402.409C399.003 403.556 401.451 402.97 402.598 401.099C403.745 399.227 403.157 396.78 401.285 395.632C399.412 394.484 396.965 395.071 395.817 396.942C394.67 398.813 395.258 401.261 397.131 402.409Z" fill="#212121"/>
<path d="M221.907 374.135C222.233 371.971 224.275 370.535 226.439 370.861C228.603 371.186 230.038 373.228 229.713 375.392C229.387 377.556 227.345 378.992 225.181 378.666C223.017 378.341 221.582 376.299 221.907 374.135Z" fill="#212121"/>
<path d="M169.927 77.7602C171.868 76.8075 174.26 77.6375 175.213 79.5787C176.165 81.5198 175.335 83.912 173.394 84.8647C171.453 85.8174 169.061 84.9874 168.108 83.0462C167.136 81.0469 167.985 78.7129 169.927 77.7602Z" fill="#212121"/>
<path d="M72.3938 220.475C71.0994 217.681 72.2652 214.344 75.0596 213.05C77.8539 211.756 81.1909 212.921 82.4852 215.715C83.7795 218.51 82.6138 221.846 79.8194 223.141C77.0439 224.493 73.7651 223.309 72.3938 220.475Z" fill="#212121"/>
<path d="M348.808 79.2185C345.733 79.2538 343.14 76.8174 343.105 73.7424C343.07 70.6674 345.506 68.0747 348.581 68.0394C351.656 68.0042 354.249 70.4406 354.284 73.5156C354.32 76.5906 351.864 79.1251 348.808 79.2185Z" fill="#212121"/>
<path d="M110.973 211.149C111.933 214.104 115.108 215.721 118.063 214.76C121.018 213.799 122.635 210.625 121.674 207.67C120.713 204.715 117.539 203.099 114.584 204.059C111.629 205.02 110.012 208.194 110.973 211.149Z" fill="#212121"/>
<path d="M327.76 451.932C333.742 453.49 339.855 449.903 341.413 443.921C342.971 437.939 339.384 431.827 333.402 430.269C327.42 428.711 321.307 432.297 319.749 438.279C318.192 444.262 321.778 450.374 327.76 451.932Z" fill="#F99668"/>
<path d="M396.841 260.983C393.628 263.957 388.62 263.784 385.646 260.571C382.672 257.358 382.844 252.35 386.058 249.377C389.271 246.403 394.279 246.575 397.253 249.788C400.227 253.001 400.054 258.009 396.841 260.983Z" fill="#212121"/>
<path d="M214.294 98.7974C216.033 102.793 220.681 104.623 224.677 102.884C228.672 101.146 230.502 96.4971 228.763 92.5015C227.024 88.5059 222.376 86.6762 218.38 88.4148C214.385 90.1534 212.555 94.8018 214.294 98.7974Z" fill="#F99668"/>
<path d="M145.441 308.702C148.6 311.704 153.594 311.577 156.594 308.418C159.594 305.26 159.465 300.267 156.306 297.265C153.146 294.264 148.152 294.391 145.152 297.549C142.152 300.707 142.281 305.701 145.441 308.702Z" fill="#212121"/>
<path d="M461.693 274.002C464.37 275.646 467.873 274.81 469.517 272.134C471.161 269.459 470.323 265.956 467.645 264.312C464.968 262.667 461.465 263.503 459.821 266.179C458.177 268.855 459.015 272.357 461.693 274.002Z" fill="#212121"/>
<path d="M276.839 394.924C276.506 398.055 273.723 400.374 270.612 400.1C267.482 399.767 265.162 396.985 265.437 393.873C265.769 390.743 268.552 388.423 271.663 388.698C274.833 388.953 277.094 391.755 276.839 394.924Z" fill="#212121"/>
<path d="M357.119 356.798C361.508 357.043 364.788 360.801 364.543 365.189C364.297 369.578 360.54 372.858 356.151 372.612C351.762 372.367 348.483 368.61 348.728 364.221C348.992 359.891 352.73 356.553 357.119 356.798Z" fill="#212121"/>
<path d="M388.937 338.543C392.054 335.472 397.101 335.567 400.114 338.703C403.186 341.82 403.09 346.867 399.954 349.88C396.818 352.894 391.79 352.856 388.776 349.72C385.763 346.584 385.819 341.614 388.937 338.543Z" fill="#212121"/>
<path d="M76.4621 315.332C79.3561 318.591 84.3428 318.888 87.6002 315.995C90.8577 313.102 91.1522 308.115 88.2582 304.856C85.3642 301.598 80.3774 301.301 77.12 304.194C73.8626 307.086 73.568 312.073 76.4621 315.332Z" fill="#646464"/>
<path d="M412.919 302.857C417.221 303.552 421.272 300.629 421.967 296.329C422.661 292.028 419.736 287.979 415.433 287.284C411.131 286.59 407.08 289.512 406.386 293.813C405.691 298.113 408.616 302.162 412.919 302.857Z" fill="#212121"/>
<path d="M390.989 169.732C392.58 173.789 397.158 175.787 401.214 174.196C405.269 172.604 407.267 168.026 405.676 163.97C404.084 159.914 399.506 157.916 395.451 159.507C391.395 161.098 389.397 165.676 390.989 169.732Z" fill="#FF9C6F"/>
<path d="M459.123 206.068C461.937 204.832 465.234 206.075 466.489 208.946C467.744 211.817 466.483 215.057 463.611 216.312C460.798 217.548 457.5 216.305 456.245 213.434C455.009 210.621 456.31 207.304 459.123 206.068Z" fill="#212121"/>
<path d="M179.366 367.701C182.472 367.828 185.092 365.414 185.219 362.309C185.346 359.205 182.931 356.585 179.826 356.458C176.72 356.331 174.1 358.745 173.973 361.849C173.846 364.954 176.261 367.574 179.366 367.701Z" fill="#212121"/>
<path d="M115.816 144.554C116.2 142.371 118.26 140.994 120.424 141.319C122.607 141.703 123.985 143.763 123.659 145.927C123.275 148.11 121.215 149.487 119.051 149.162C116.868 148.778 115.432 146.737 115.816 144.554Z" fill="#212121"/>
<path d="M210.99 62.1588C213.172 62.4022 215.139 60.831 215.382 58.6495C215.626 56.468 214.053 54.5022 211.871 54.2588C209.688 54.0154 207.721 55.5866 207.478 57.7681C207.235 59.9496 208.807 61.9154 210.99 62.1588Z" fill="#212121"/>
<path d="M367.302 416.149C369.465 415.766 370.908 413.704 370.526 411.543C370.143 409.381 368.081 407.939 365.918 408.321C363.756 408.704 362.313 410.766 362.695 412.927C363.077 415.089 365.14 416.531 367.302 416.149Z" fill="#212121"/>
<path d="M442.857 166.724C442.989 164.559 444.897 162.909 447.062 163.041C449.228 163.173 450.877 165.081 450.745 167.247C450.613 169.412 448.705 171.061 446.54 170.929C444.316 170.816 442.667 168.908 442.857 166.724Z" fill="#212121"/>
<path d="M262.623 455.053C261.184 453.398 261.338 450.904 262.993 449.466C264.648 448.027 267.142 448.181 268.58 449.836C270.018 451.49 269.864 453.984 268.21 455.423C266.555 456.861 264.061 456.707 262.623 455.053Z" fill="#212121"/>
<path d="M128.907 111.036C127.019 109.977 126.302 107.573 127.361 105.686C128.419 103.798 130.823 103.081 132.711 104.139C134.599 105.198 135.316 107.601 134.257 109.489C133.199 111.377 130.795 112.094 128.907 111.036Z" fill="#212121"/>
<path d="M255.524 52.8273C257.561 51.9719 259.875 52.9561 260.711 54.9352C261.567 56.9724 260.582 59.2862 258.603 60.1226C256.566 60.978 254.252 59.9938 253.416 58.0147C252.502 55.9964 253.486 53.6826 255.524 52.8273Z" fill="#212121"/>
<path d="M431.455 374.369C429.342 374.992 427.146 373.776 426.542 371.722C425.92 369.609 427.135 367.413 429.19 366.809C431.303 366.186 433.499 367.402 434.103 369.456C434.783 371.55 433.568 373.746 431.455 374.369Z" fill="#212121"/>
<path d="M264.98 118.31C265.248 116.165 267.252 114.613 269.416 114.938C271.561 115.205 273.113 117.209 272.787 119.373C272.462 121.537 270.516 123.07 268.352 122.745C266.207 122.477 264.655 120.474 264.98 118.31Z" fill="#212121"/>
<path d="M304.737 143.264C302.587 143.577 300.567 142.111 300.254 139.962C299.941 137.812 301.407 135.792 303.556 135.479C305.706 135.166 307.726 136.632 308.039 138.781C308.352 140.931 306.944 142.932 304.737 143.264Z" fill="#212121"/>
<path d="M394.866 88.9424C396.95 89.6155 398.114 91.8099 397.441 93.8939C396.767 95.978 394.573 97.1417 392.489 96.4686C390.405 95.7955 389.241 93.6012 389.914 91.5171C390.587 89.433 392.782 88.2693 394.866 88.9424Z" fill="#212121"/>
<path d="M325.366 107.809C325.691 105.645 327.637 104.112 329.801 104.438C331.965 104.763 333.498 106.709 333.173 108.873C332.847 111.037 330.902 112.57 328.737 112.244C326.592 111.977 325.059 110.031 325.366 107.809Z" fill="#212121"/>
<path d="M196.164 397.616C197.222 395.728 199.626 395.011 201.514 396.069C203.402 397.128 204.119 399.532 203.06 401.419C202.002 403.307 199.598 404.025 197.71 402.966C195.841 401.966 195.124 399.562 196.164 397.616Z" fill="#212121"/>
<path d="M244.642 414.976C245.867 416.764 245.442 419.217 243.673 420.5C241.884 421.725 239.431 421.3 238.148 419.531C236.865 417.761 237.348 415.289 239.118 414.007C240.945 412.705 243.417 413.187 244.642 414.976Z" fill="#212121"/>
<path d="M107.54 355.878C106.636 357.844 104.288 358.736 102.322 357.832C100.356 356.928 99.4643 354.581 100.369 352.614C101.273 350.648 103.62 349.756 105.586 350.661C107.611 351.546 108.502 353.893 107.54 355.878Z" fill="#212121"/>
<path d="M345.212 157.371C343.305 156.255 342.646 153.832 343.782 151.984C344.898 150.077 347.321 149.418 349.169 150.554C351.076 151.67 351.735 154.093 350.599 155.941C349.483 157.848 347.06 158.507 345.212 157.371Z" fill="#212121"/>
<path d="M217.516 442.319C216.765 444.364 214.456 445.372 212.411 444.622C210.366 443.872 209.358 441.563 210.109 439.518C210.859 437.473 213.168 436.465 215.213 437.215C217.258 437.965 218.324 440.255 217.516 442.319Z" fill="#212121"/>
<path d="M291.457 89.9576C290.572 91.982 288.302 92.9129 286.277 92.0276C284.253 91.1422 283.322 88.8723 284.207 86.8479C285.093 84.8236 287.363 83.8926 289.387 84.778C291.412 85.6633 292.342 87.9332 291.457 89.9576Z" fill="#212121"/>
<path d="M370.102 124.573C371.086 126.536 373.475 127.329 375.437 126.345C377.399 125.361 378.191 122.972 377.207 121.009C376.222 119.046 373.834 118.253 371.872 119.237C369.91 120.221 369.117 122.61 370.102 124.573Z" fill="#212121"/>
<path d="M441.369 331.077C443.335 331.981 444.227 334.328 443.323 336.294C442.418 338.26 440.071 339.152 438.105 338.248C436.139 337.344 435.248 334.997 436.152 333.031C436.998 331.084 439.345 330.192 441.369 331.077Z" fill="#212121"/>
<path d="M113.144 306.851C114.53 305.178 117.046 305.003 118.719 306.389C120.391 307.775 120.566 310.29 119.18 311.963C117.794 313.635 115.279 313.81 113.606 312.424C111.933 311.039 111.759 308.523 113.144 306.851Z" fill="#212121"/>
<path d="M150.132 235.654C148.646 235.237 147.807 233.645 148.224 232.16C148.641 230.674 150.233 229.835 151.719 230.252C153.204 230.669 154.043 232.261 153.626 233.746C153.151 235.251 151.617 236.071 150.132 235.654Z" fill="#212121"/>
<path d="M425.843 129.227C424.58 130.088 422.822 129.824 421.961 128.561C421.101 127.298 421.365 125.54 422.628 124.679C423.892 123.819 425.649 124.083 426.51 125.346C427.429 126.59 427.087 128.309 425.843 129.227Z" fill="#212121"/>
<path d="M151.7 180.541C151.283 182.027 149.768 182.905 148.282 182.488C146.796 182.071 145.918 180.557 146.335 179.071C146.752 177.585 148.267 176.707 149.753 177.124C151.22 177.483 152.117 179.056 151.7 180.541Z" fill="#212121"/>
<path d="M145.377 347.434C145.095 348.94 143.618 349.935 142.112 349.653C140.605 349.371 139.611 347.894 139.893 346.388C140.175 344.882 141.652 343.887 143.158 344.169C144.664 344.451 145.658 345.928 145.377 347.434Z" fill="#212121"/>
<path d="M409.794 212.201C409.512 213.707 408.054 214.76 406.548 214.478C405.041 214.196 403.989 212.738 404.271 211.232C404.553 209.726 406.011 208.674 407.517 208.955C409.081 209.218 410.076 210.695 409.794 212.201Z" fill="#212121"/>
<path d="M464.162 311.575C463.61 313.04 462.038 313.744 460.592 313.25C459.126 312.698 458.422 311.127 458.917 309.68C459.469 308.215 461.04 307.511 462.487 308.005C463.953 308.557 464.733 310.168 464.162 311.575Z" fill="#212121"/>
<path d="M363.875 196.777C365.138 195.916 366.915 196.238 367.776 197.501C368.636 198.764 368.314 200.541 367.05 201.402C365.787 202.262 364.011 201.94 363.15 200.677C362.27 199.356 362.612 197.637 363.875 196.777Z" fill="#212121"/>
<path d="M284.241 432.521C284.721 433.998 286.308 434.806 287.786 434.326C289.263 433.846 290.071 432.259 289.591 430.781C289.111 429.304 287.524 428.496 286.046 428.976C284.569 429.457 283.761 431.044 284.241 432.521Z" fill="#212121"/>
<path d="M302.996 57.1976C301.824 56.1642 301.76 54.3848 302.813 53.2711C303.846 52.0993 305.626 52.0351 306.739 53.0874C307.911 54.1208 307.975 55.9002 306.923 57.0139C305.928 58.1087 304.149 58.1729 302.996 57.1976Z" fill="#212121"/>
<path d="M135.493 391.808C134.096 392.455 132.419 391.843 131.811 390.369C131.164 388.972 131.776 387.295 133.25 386.687C134.647 386.04 136.325 386.652 136.932 388.125C137.521 389.541 136.909 391.219 135.493 391.808Z" fill="#212121"/>
<path d="M167.534 130.242C170.963 131.01 174.365 128.853 175.132 125.426C175.898 121.998 173.74 118.598 170.311 117.83C166.882 117.063 163.48 119.22 162.713 122.647C161.946 126.075 164.105 129.475 167.534 130.242Z" fill="#212121"/>
<path d="M78.2632 271.369C74.7967 271.981 71.5261 269.636 70.9135 266.169C70.3009 262.703 72.6461 259.432 76.1127 258.82C79.5793 258.207 82.8499 260.552 83.4624 264.019C84.0168 267.504 81.7298 270.756 78.2632 271.369Z" fill="#212121"/>
<path d="M127.507 263.591C126.033 266.772 122.232 268.136 119.033 266.604C115.853 265.13 114.488 261.329 116.021 258.13C117.495 254.949 121.296 253.585 124.495 255.117C127.675 256.591 129.04 260.392 127.507 263.591Z" fill="#212121"/>
</g>
</svg>
