<svg width="728" height="693" viewBox="0 0 728 693" fill="none" xmlns="http://www.w3.org/2000/svg">
<g filter="url(#filter0_f)">
<path d="M667.26 286.136L655.855 152.102C659.285 152.396 662.115 149.614 662.409 146.184C662.703 142.753 659.959 139.494 656.528 139.2C655.242 139.089 654.348 139.445 653.453 139.8L622.837 28.3115L580.742 -34.9127C582.138 -36.089 583.572 -37.6942 583.756 -39.8384C584.05 -43.2692 581.305 -46.5284 577.875 -46.8225C575.731 -47.0062 573.942 -46.2955 572.974 -45.0825L516.569 -102.621C517.071 -103.442 517.573 -104.263 517.684 -105.55C517.978 -108.98 515.233 -112.24 511.803 -112.534C509.659 -112.717 507.405 -111.615 506.4 -109.973L296.018 -210.517C296.055 -210.945 296.055 -210.945 296.092 -211.374C296.386 -214.805 293.642 -218.064 290.211 -218.358C287.638 -218.579 285.347 -217.047 283.877 -215.013L166.68 -213.394C166.68 -213.394 166.68 -213.394 166.251 -213.431L88.809 -171.684C87.6329 -173.081 85.9912 -174.085 84.276 -174.232C80.8456 -174.526 77.5867 -171.782 77.2926 -168.351C77.2559 -167.922 77.1823 -167.064 77.5744 -166.599L-22.9981 -122.082C-24.211 -123.05 -25.4239 -124.018 -27.1391 -124.165C-30.5695 -124.459 -33.8284 -121.715 -34.1224 -118.284C-34.2327 -116.997 -33.8774 -116.103 -33.5589 -114.78L-94.7184 -66.4533C-95.5393 -66.9556 -96.7889 -67.4947 -98.0753 -67.605C-101.506 -67.899 -104.765 -65.1543 -105.059 -61.7234C-105.316 -58.7215 -103.392 -55.9646 -100.464 -54.8497L-140.772 77.7762L-168.755 182.514C-172.186 182.22 -175.016 185.002 -175.31 188.433C-175.604 191.863 -173.251 194.657 -170.287 195.343L-164.884 298.623L-126.305 412.954C-128.13 414.093 -129.135 415.735 -129.319 417.879C-129.613 421.31 -126.868 424.569 -123.438 424.863C-122.152 424.974 -121.257 424.618 -120.363 424.263L-53.4824 510.78C-54.4136 511.564 -54.9526 512.814 -55.0997 514.529C-55.3937 517.96 -52.6494 521.219 -49.219 521.513C-47.9326 521.623 -46.6094 521.305 -45.2495 520.557L22.8195 573.048L100.763 621.2C100.763 621.2 100.763 621.2 101.192 621.237L139.061 627.939L139.024 628.368C138.73 631.798 141.475 635.058 144.905 635.352C148.335 635.646 151.594 632.901 151.888 629.47C151.925 629.041 151.925 629.041 151.962 628.612L269.625 626.601L334.913 615.781C335.55 618.427 337.51 620.755 340.512 621.013C343.942 621.307 347.201 618.562 347.495 615.131C347.606 613.845 347.287 612.521 346.932 611.627L358.706 605.292L427.314 611.172C427.485 614.211 429.874 616.576 433.305 616.87C436.735 617.164 439.994 614.419 440.288 610.988C440.435 609.273 439.724 607.484 438.94 606.553L497.331 535.093L558.013 477.222L641.078 415.221C641.078 415.221 641.078 415.221 641.115 414.792L666.231 298.144C669.269 297.972 671.634 295.583 671.928 292.152C671.683 289.971 669.759 287.214 667.26 286.136ZM145.579 622.449C143.864 622.302 142.075 623.013 140.678 624.189L67.1085 570.363C67.1452 569.935 67.1453 569.935 67.6108 569.543L146.4 592.712L197.795 607.917L150.467 625.892C149.328 624.067 147.723 622.633 145.579 622.449ZM-48.0795 508.219C-48.5083 508.182 -48.9371 508.145 -49.3659 508.108L-63.5529 461.964L-70.3279 440.215C-69.8624 439.823 -68.968 439.468 -68.4657 438.647L8.36299 504.848C7.35837 506.49 6.74581 508.598 6.59879 510.313C6.48852 511.6 6.77027 513.352 7.08881 514.675L-42.3091 516.489C-42.2724 516.06 -41.77 515.24 -41.6965 514.382C-41.9048 511.772 -44.2203 508.549 -48.0795 508.219ZM-143.873 315.544L-168.106 195.098C-166.354 194.816 -164.957 193.64 -163.989 192.427L-146.85 199.08C-146.641 201.69 -144.644 203.589 -142.108 204.238L-143.873 315.544ZM-27.8497 -110.834C-24.4193 -110.54 -21.626 -112.893 -20.9399 -115.858L10.8403 -88.5101L-49.8048 -0.82748C-50.6257 -1.32983 -51.4833 -1.40333 -52.3409 -1.47684C-53.6273 -1.58709 -54.9504 -1.2685 -55.8448 -0.913157L-68.1575 -8.44849L-80.4702 -15.9838C-80.4334 -16.4127 -79.9311 -17.2336 -79.8576 -18.0913C-79.6738 -20.2356 -80.3844 -22.0245 -81.9893 -23.4581L-70.3994 -42.7688L-29.0626 -111.802C-29.0994 -111.373 -28.7073 -110.908 -27.8497 -110.834ZM350.733 -148.371L350.696 -147.942C350.623 -147.084 350.549 -146.227 350.905 -145.332L321.93 -134.855L291.632 -124.06C290.995 -126.707 288.569 -128.643 285.996 -128.863C284.71 -128.973 283.387 -128.655 282.027 -127.907L209.082 -204.144C209.082 -204.144 209.082 -204.144 209.119 -204.573L350.733 -148.371ZM576.38 -34.4225C576.809 -34.3858 577.238 -34.349 577.666 -34.3123L606.862 43.3583C606.433 43.3216 606.396 43.7504 605.967 43.7137L540.716 -21.4952C541.218 -22.3161 541.721 -23.1371 541.831 -24.4236C541.978 -26.139 541.659 -27.4623 540.875 -28.3935L557.329 -33.8953L571.1 -38.3311C572.202 -36.0766 574.236 -34.6063 576.38 -34.4225ZM629.502 172.307L618.805 297.103C617.482 297.422 616.159 297.74 615.191 298.953L575.828 244.171C579.589 240.606 582.174 235.643 582.652 230.068C583.13 224.493 581.427 219.163 578.327 215.009L626.182 170.727C627.431 171.266 628.252 171.768 629.502 172.307ZM610.327 421.225L608.293 419.755L558.209 379.174C559.68 377.14 560.758 374.64 560.978 372.067C561.309 368.208 559.888 364.63 557.499 362.265L615.24 308.462C616.061 308.964 616.453 309.43 617.311 309.503L615.301 373.267L614.015 418.517C612.691 418.836 611.295 420.012 610.327 421.225ZM520.866 482.246C518.722 482.062 516.431 483.594 515.427 485.236L444.883 421.301C445.851 420.088 446.819 418.875 446.966 417.16C447.003 416.731 447.003 416.731 447.039 416.302L476.235 403.252L536.88 376.05C538.338 379.199 540.727 381.564 544.083 382.715L520.866 482.246ZM67.7578 567.827C67.8681 566.541 67.5496 565.217 67.1943 564.323L120.844 533.065L197.55 605.736L185.335 602.097L67.7578 567.827ZM-71.945 428.845L-72.9982 330.258C-72.1039 329.903 -70.7807 329.584 -70.2784 328.763L-39.8459 366.796L12.0755 431.294C10.7156 432.042 10.1765 433.291 9.60069 434.97L-67.167 433.574C-67.412 431.393 -69.3722 429.065 -71.945 428.845ZM-135.186 194.032L-93.8127 139.689C-91.779 141.16 -89.7084 142.201 -87.1356 142.422L-86.7068 142.458L-74.9339 317.564C-75.3627 317.527 -75.7915 317.491 -76.2571 317.883L-138.249 204.569C-136.032 203.895 -134.096 201.469 -133.875 198.896C-133.263 196.788 -133.973 194.999 -135.186 194.032ZM243.557 -122.565L278.866 -121.266C279.221 -120.372 279.576 -119.477 279.932 -118.583L213.908 -84.0655C210.564 -90.4002 204.07 -95.2767 196.352 -95.9383C189.491 -96.5263 182.765 -93.6468 178.465 -88.8313L164.878 -101.66L140.841 -123.592C141.343 -124.413 141.845 -125.234 141.919 -126.092L243.557 -122.565ZM356.577 -140.958C357.863 -140.848 359.615 -141.13 360.546 -141.914L370.923 -131.952L420.738 -83.1866C420.235 -82.3656 419.304 -81.5814 419.231 -80.7237L298.125 -119.184L291.803 -121.021C291.84 -121.45 291.84 -121.45 291.877 -121.879C291.914 -122.308 291.914 -122.308 291.95 -122.737L313.77 -130.371L351.652 -143.972C352.362 -142.183 354.433 -141.142 356.577 -140.958ZM614.456 307.53L556.715 361.334C554.718 359.435 552.219 358.356 549.217 358.099L561.518 249.857C566.271 249.832 571.209 247.664 574.468 244.919L613.795 300.13C613.292 300.951 612.753 302.201 612.68 303.058C612.998 304.381 613.709 306.17 614.456 307.53ZM441.085 410.176C438.084 409.918 435.327 411.842 434.212 414.771L373.163 386.21C373.665 385.389 373.776 384.102 373.849 383.245C374.107 380.243 373.506 377.167 371.546 374.839L469.411 311.515C470.195 312.446 470.979 313.377 471.8 313.88L441.943 410.249C441.943 410.249 441.514 410.212 441.085 410.176ZM131.49 489.481L119.41 489.31C119.447 488.881 119.484 488.452 119.521 488.023L160.588 472.535L236.89 444.083L229.11 454.216L204.73 486.686C203.909 486.184 203.051 486.111 202.194 486.037C199.192 485.78 196.007 487.667 195.284 491.061L131.49 489.481ZM-68.3671 321.583L9.12351 289.344C9.83409 291.133 11.047 292.101 12.7254 292.677L15.6162 430.302C14.7586 430.228 13.8642 430.583 12.9699 430.939L-64.7163 334.424L-69.7761 327.942C-69.2738 327.121 -68.7347 325.872 -68.6244 324.585C-67.6566 323.372 -68.0119 322.477 -68.3671 321.583ZM-73.1689 130.659C-72.8749 127.228 -73.904 124.116 -75.8642 121.788L-6.15314 69.4421C-4.977 70.8389 -3.33531 71.8437 -1.6201 71.9907C-1.1913 72.0274 -1.1913 72.0274 -0.762496 72.0642L12.4314 280.988C11.9659 281.38 11.5371 281.343 11.0715 281.735L-24.3595 226.426L-79.1967 140.51C-75.5457 138.231 -73.5365 134.947 -73.1689 130.659ZM280.716 -117.652C281.929 -116.684 283.178 -116.145 284.465 -116.034C286.18 -115.887 287.969 -116.598 288.9 -117.382L339.964 -52.9574C337.673 -51.4258 335.737 -48.9997 335.051 -46.0345L215.66 -69.2273C215.734 -70.085 215.807 -70.9427 215.881 -71.8004C216.212 -75.6601 215.648 -79.1644 214.227 -82.7422L280.716 -117.652ZM424.536 -72.061C425.822 -71.9507 427.574 -72.2326 428.505 -73.0168L466.227 11.0007C463.973 12.1035 462.503 14.1375 461.032 16.1715L444.505 7.41093L359.835 -37.8622C360.374 -39.112 360.448 -39.9697 360.558 -41.2562C360.705 -42.9716 360.424 -44.7238 359.713 -46.5127L404.149 -66.0323L420.75 -73.2495C421.999 -72.7104 423.249 -72.1712 424.536 -72.061ZM565.415 98.5582L563.123 205.93L562.694 205.894C556.262 205.342 550.002 207.83 545.775 211.787L497.014 170.888C497.945 170.104 498.484 168.854 498.631 167.139C498.815 164.994 498.105 163.206 496.892 162.238L515.771 143.552L562.989 96.6223C563.344 97.5168 564.594 98.0559 565.415 98.5582ZM323.434 452.364C322.221 451.396 321.008 450.428 319.293 450.281C316.292 450.024 314.001 451.556 312.886 454.484L240.504 442.232L312.286 406.048L349.285 387.62C350.388 389.874 351.956 391.736 354.026 392.778L323.434 452.364ZM471.532 34.7834C471.961 34.8202 472.818 34.8937 473.247 34.9304L487.421 146.738L489.21 161.147C487.887 161.466 486.956 162.25 486.417 163.5L463.935 148.613L389.104 99.431C389.606 98.61 390.108 97.789 390.219 96.5025C390.292 95.6448 390.366 94.7871 390.01 93.8927L463.642 31.0832C466.067 33.0191 468.53 34.5262 471.532 34.7834ZM381.532 248.255L385.845 102.176C387.168 101.857 388.062 101.502 388.564 100.681L485.878 164.75C485.841 165.178 485.339 165.999 485.302 166.428C485.192 167.715 485.51 169.038 485.865 169.933L384.031 249.333C383.639 248.867 382.818 248.365 381.532 248.255ZM362.088 369.277C356.942 368.836 352.397 371.47 350.314 375.612L264.591 337.592C264.628 337.163 264.628 337.163 264.664 336.735C264.811 335.019 264.064 333.659 263.317 332.299L288.053 315.843L375.577 257.248C376.325 258.608 377.538 259.576 378.787 260.116L362.088 369.277ZM133.696 388.15C133.267 388.113 132.838 388.076 132.41 388.04L128.637 260.708C135.179 259.972 140.655 256.554 144.527 251.701L202.929 296.019L252.45 333.096C251.947 333.917 251.408 335.166 251.335 336.024C251.298 336.453 251.225 337.311 251.617 337.776L143.191 393.284C140.839 390.49 137.555 388.481 133.696 388.15ZM338.346 -34.0879C340.307 -31.7599 343.627 -30.1794 346.628 -29.9221C348.343 -29.7751 350.095 -30.0569 351.884 -30.7676L382.623 89.3714C380.871 89.6533 379.474 90.8296 378.935 92.0794L266.516 22.8278C267.018 22.0069 267.557 20.7571 267.631 19.8994C267.741 18.6128 267.386 17.7184 267.03 16.8239L338.346 -34.0879ZM262.19 158.97L261.762 158.933L261.909 96.7373L261.468 26.2833C263.22 26.0014 264.543 25.6828 265.511 24.4697L377.93 93.7213C377.894 94.1501 377.428 94.5422 377.354 95.3999C377.171 97.5442 377.881 99.3332 379.094 100.301L297.401 156.372L278.571 169.446C275.618 163.577 269.48 159.595 262.19 158.97ZM260.182 26.173L260.046 158.786C254.435 158.737 249.069 160.869 245.271 164.864L151.156 63.4847L131.406 41.92C133.734 39.9595 135.278 37.0678 135.572 33.637C135.609 33.2081 135.609 33.2081 135.646 32.7793L254.938 21.8355C255.612 24.0533 257.609 25.9525 260.182 26.173ZM130.439 43.1331L244.303 166.077C240.971 169.679 238.851 174.249 238.41 179.396C238.079 183.255 239.035 187.225 240.456 190.803L146.438 229.401C143.13 222.638 136.637 217.761 128.49 217.063C128.061 217.026 127.632 216.989 127.632 216.989L123.749 45.5837C125.93 45.3386 128.613 44.2726 130.439 43.1331ZM253.418 331.883L189.306 283.62L145.495 250.488C147.467 247.633 148.619 244.276 148.913 240.845C149.207 237.415 148.643 233.91 147.186 230.761L241.203 192.163C244.548 198.498 251.078 202.946 258.368 203.57C258.797 203.607 259.225 203.644 259.654 203.681L256.529 330.853C255.709 330.351 254.349 331.098 253.418 331.883ZM261.014 202.933C267.948 202.663 274.282 199.318 278.227 193.608L293.86 202.724L375.663 251.208C375.161 252.029 374.658 252.85 374.585 253.707C374.511 254.565 374.438 255.423 374.793 256.317L282.258 317.938L261.638 331.723C260.854 330.792 259.605 330.253 257.889 330.106C257.889 330.106 257.889 330.106 257.461 330.069L261.014 202.933ZM376.165 250.387L278.73 192.787C280.702 189.933 281.854 186.575 282.148 183.144C282.515 178.856 281.597 174.457 279.747 170.843L323.779 140.92L380.736 101.306C381.557 101.808 382.378 102.31 383.664 102.421C384.093 102.457 384.093 102.457 384.522 102.494L379.78 248.537C378.493 248.426 377.133 249.174 376.165 250.387ZM462.858 30.152L421.386 65.4777L389.692 92.5694C388.552 90.7437 386.911 89.7389 384.767 89.5552C384.338 89.5184 384.338 89.5184 383.909 89.4817L353.171 -30.6574C355.854 -31.7234 357.789 -34.1495 359.296 -36.6124L460.922 17.458C460.383 18.7078 460.309 19.5655 460.199 20.8521C459.476 24.2461 460.898 27.824 462.858 30.152ZM337.133 -35.0559L266.209 16.3216C265.033 14.9248 263.392 13.9201 261.676 13.773C259.961 13.626 258.638 13.9446 257.241 15.1209L207.158 -55.7C211.311 -58.8 214.251 -62.868 215.55 -67.9407L334.94 -44.7479C334.904 -44.3191 334.867 -43.8902 334.83 -43.4613C334.573 -40.4594 335.602 -37.3472 337.133 -35.0559ZM192.603 -52.1954C197.749 -51.7544 202.184 -53.1023 206.263 -55.3446L256.347 15.4763C255.379 16.6893 254.84 17.9391 254.73 19.2257C254.693 19.6545 254.656 20.0834 254.62 20.5123L135.327 31.4559C135.192 27.9884 133.306 24.8027 130.488 22.4011L182.924 -55.185C185.816 -53.6411 189.173 -52.4894 192.603 -52.1954ZM121.605 45.3999L122.034 45.4367L125.954 216.413C122.058 216.512 118.052 217.896 114.866 219.783L56.7946 141.366L4.21161 69.4665C4.71392 68.6455 5.25301 67.3957 5.36327 66.1092C5.43679 65.2515 5.51027 64.3937 5.15498 63.4993L38.6996 55.1423L110.652 37.1172C112.429 41.5895 116.46 44.9589 121.605 45.3999ZM3.24375 70.6795L113.898 220.996C108.851 224.452 105.335 230.198 104.746 237.06C104.452 240.491 105.053 243.566 106.119 246.25L20.4684 282.973C19.2923 281.576 17.6506 280.571 15.9354 280.424C15.0778 280.351 14.649 280.314 14.1834 280.706L0.952712 72.2112C1.84707 71.8558 2.34939 71.0349 3.24375 70.6795ZM21.2157 284.333L91.6618 253.65L106.474 247.144C109.745 254.336 116.63 259.679 124.777 260.377C125.635 260.45 126.493 260.524 127.35 260.597L128.367 299.133L131.123 387.929C128.514 388.138 125.831 389.204 123.932 391.201L19.3045 291.513C20.2723 290.3 21.2402 289.087 21.3872 287.372C21.9263 286.122 21.571 285.227 21.2157 284.333ZM143.938 394.644L251.935 339.1C252.682 340.46 253.859 341.856 255.537 342.432L254.483 349.686L238.397 441.62L145.274 404.262C145.347 403.404 145.849 402.583 145.923 401.726C145.715 399.116 145.041 396.898 143.938 394.644ZM249.399 383.81L256.358 342.935L256.787 342.971C259.788 343.229 262.079 341.697 263.157 339.197L328.102 367.66L348.918 376.788C348.379 378.038 347.839 379.288 347.692 381.003C347.545 382.718 347.79 384.899 348.538 386.259L289.388 416.182L238.862 441.228L249.399 383.81ZM363.374 369.387L371.363 316.503L380 261.083L380.429 261.12C383.002 261.341 385.293 259.809 386.763 257.775L406.145 268.508L470.391 305.119C469.889 305.94 469.387 306.761 469.276 308.047C469.203 308.905 469.129 309.763 469.521 310.228L371.191 373.945C369.231 371.617 366.339 370.073 363.374 369.387ZM386.873 256.489C386.91 256.06 386.947 255.631 386.983 255.202C387.13 253.487 386.42 251.698 385.244 250.301L487.078 170.901C487.862 171.832 488.683 172.334 489.933 172.873L475.402 302.092C473.65 302.374 472.29 303.122 471.359 303.906L386.873 256.489ZM476.689 302.203L491.183 173.412L491.611 173.449C493.327 173.596 494.686 172.849 496.046 172.101L544.807 213.001C541.475 216.603 539.392 220.744 538.951 225.891C538.363 232.752 540.85 239.013 545.236 243.277L478.796 302.815C478.404 302.35 477.546 302.276 476.689 302.203ZM561.776 95.6543L556.581 100.825L495.679 161.27C494.858 160.767 494.037 160.265 492.751 160.155C492.322 160.118 491.464 160.044 490.999 160.437L474.57 34.6119C477.216 33.9747 479.899 32.9086 481.798 30.9114L561.433 89.5769C560.931 90.3979 560.894 90.8267 560.82 91.6844C560.673 93.3998 560.992 94.7232 561.776 95.6543ZM419.966 -74.1807L359.394 -47.836C357.581 -51.8794 353.514 -54.8201 348.797 -55.2243C346.224 -55.4448 343.578 -54.8076 341.752 -53.6681L307.865 -96.7487L290.725 -118.522C291.191 -118.914 291.228 -119.343 291.264 -119.772L418.655 -79.045C418.508 -77.3296 419.219 -75.5407 419.966 -74.1807ZM182.14 -56.1162L129.704 21.4699C128.062 20.4652 125.955 19.8526 123.811 19.6689C120.38 19.3748 117.268 20.4042 114.512 22.3279L62.088 -41.3495C62.5903 -42.1705 62.6271 -42.5993 62.7006 -43.4571C62.7741 -44.3148 62.8109 -44.7436 62.4556 -45.6381L116.95 -56.5195L173.197 -67.6827C174.544 -63.2472 177.644 -59.0936 182.14 -56.1162ZM55.7172 -37.5756C57.8612 -37.3918 60.1155 -38.4946 61.1201 -40.1365L113.115 23.5042C111.216 25.5015 109.672 28.3932 109.415 31.3951C109.305 32.6817 109.587 34.4338 109.905 35.7571L4.3709 62.5681C4.01561 61.6737 3.19477 61.1713 2.37392 60.6689L10.6315 44.9606L54.4308 -37.6858C55.2884 -37.6123 55.2884 -37.6123 55.7172 -37.5756ZM14.4039 293.253C16.1191 293.4 17.4422 293.081 18.3734 292.297L123 391.985C121.101 393.982 120.023 396.482 119.766 399.484C119.656 400.77 119.582 401.628 119.901 402.951L21.8277 433.426C21.1171 431.637 19.4754 430.632 17.3682 430.02L14.4039 293.253ZM22.1462 434.749L120.219 404.275C121.175 408.245 124.348 411.541 128.526 413.195L113.493 482.755C110.92 482.534 108.2 484.029 107.122 486.529L22.2442 438.646C22.2809 438.217 22.3177 437.788 22.3545 437.359C22.428 436.501 22.5015 435.644 22.1462 434.749ZM129.812 413.305C130.241 413.342 131.099 413.415 131.527 413.452C137.102 413.93 142.578 410.511 144.735 405.512L178.977 419.247L236.608 442.33L124.568 484.568L118.773 486.663C118.063 484.874 116.495 483.012 114.351 482.828L129.812 413.305ZM205.55 487.189L238.679 443.372L312.31 456.163L312.273 456.592C312.2 457.449 312.126 458.307 312.518 458.773L271.782 470.401L206.69 489.014C206.763 488.157 206.371 487.691 205.55 487.189ZM324.182 453.724L347.018 409.025L354.81 393.709C356.489 394.285 357.739 394.824 359.454 394.971C365.028 395.449 370.039 392.422 372.195 387.423L410.824 405.422L433.244 415.984C433.134 417.27 433.453 418.594 433.808 419.488L388.024 434.572L324.929 455.084C324.966 454.655 324.574 454.19 324.182 453.724ZM443.621 410.825L473.479 314.456C473.907 314.492 474.336 314.529 474.765 314.566C476.909 314.75 478.698 314.039 480.131 312.434L503.813 333.472L537.553 363.148C536.12 364.753 535.471 367.289 535.287 369.433C535.14 371.149 535.422 372.901 536.132 374.69L493.914 393.535L446.758 414.55C446.439 413.227 445.263 411.83 443.621 410.825ZM538.485 362.363L521.614 347.525L481.062 311.65C481.564 310.829 481.638 309.971 481.712 309.113C481.895 306.969 481.185 305.18 479.58 303.746L545.591 244.172C548.801 247.039 553.371 249.159 558.087 249.563C558.516 249.6 558.945 249.636 559.374 249.673L551.055 321.537L547.036 358.344C544.463 358.124 540.886 359.545 538.485 362.363ZM564.838 206.077L567.13 98.7052C568.416 98.8155 569.739 98.4969 570.67 97.7127L626.525 161.684C625.593 162.468 625.054 163.718 624.907 165.434C624.797 166.72 625.116 168.043 625.863 169.403L610.389 183.629L578.008 213.686C574.443 209.925 569.947 206.947 564.838 206.077ZM562.401 88.3639L483.195 29.7351C484.665 27.7011 485.707 25.6303 485.927 23.0572C486.185 20.0552 485.548 17.4086 484.016 15.1174L498.877 2.99903L529.996 -22.4139C530.67 -20.1962 532.704 -18.7259 535.276 -18.5054C535.705 -18.4686 535.705 -18.4686 536.134 -18.4319L557.39 61.1503L564.3 86.3666C563.369 87.1508 562.903 87.5429 562.401 88.3639ZM529.249 -23.774L497.701 1.6022L482.411 13.6838C480.488 10.9269 477.168 9.34637 473.308 9.0156C471.164 8.83184 468.984 9.07693 466.729 10.1797L429.007 -73.8377C429.473 -74.2298 429.473 -74.2298 429.938 -74.6219L520.048 -32.3386L529.579 -27.6337C529.077 -26.8127 528.575 -25.9918 528.465 -24.7052C529.322 -24.6317 529.285 -24.2029 529.249 -23.774ZM135.475 -121.46C137.19 -121.313 138.979 -122.024 139.91 -122.808L177.534 -88.0471C174.667 -84.8368 173.013 -80.6586 172.609 -75.9412C172.425 -73.7969 172.67 -71.6159 172.915 -69.4349L164.547 -67.5601L62.137 -46.9614C61.745 -47.427 61.7818 -47.8558 61.3529 -47.8926L132.51 -122.146C133.331 -121.644 134.188 -121.57 135.475 -121.46ZM53.6468 -38.617L1.16101 59.7009C0.732209 59.6642 -0.088611 59.1619 -0.517413 59.1251C-1.37502 59.0516 -2.69818 59.3702 -3.59254 59.7256L-21.2346 38.7734L-47.036 7.18586C-46.9993 6.75701 -46.497 5.93608 -46.4602 5.50723C-46.3499 4.22067 -46.6684 2.89735 -47.4158 1.53729L50.4369 -41.4841C51.1842 -40.1241 52.3971 -39.1561 53.6468 -38.617ZM-53.0148 11.4255C-50.8708 11.6092 -48.6165 10.5064 -47.1463 8.47243L-8.40734 55.4248L-4.09485 60.5465C-5.49153 61.7228 -6.92494 63.328 -7.10873 65.4722C-7.21899 66.7588 -6.86372 67.6532 -6.50843 68.5477L-13.8838 73.9636L-76.6483 120.856C-78.2165 118.994 -80.287 117.952 -82.823 117.303L-53.0148 11.4255ZM-83.5216 170.812L-85.4204 142.569C-83.6685 142.287 -81.9165 142.005 -80.5566 141.257L-55.4168 180.564L10.1036 282.948C9.17253 283.733 8.63348 284.982 8.52322 286.269C8.48646 286.698 8.41293 287.556 8.80497 288.021L-69.1513 320.652C-70.3274 319.255 -71.5035 317.858 -73.6475 317.674L-83.5216 170.812ZM-66.8852 435.327L-32.3606 435.694L9.49043 436.257C9.62518 439.724 11.9774 442.518 15.4079 442.812C15.8367 442.849 15.8367 442.849 16.2655 442.885L19.2056 499.298C14.8808 499.359 11.2666 501.209 8.82858 504.456L-68.0001 438.255C-67.069 437.471 -66.5667 436.65 -66.8852 435.327ZM20.9208 499.445L18.0174 442.603C19.7694 442.322 21.166 441.145 22.1707 439.503L107.049 487.386C107.012 487.815 107.012 487.815 106.975 488.244C106.902 489.102 106.828 489.959 107.183 490.854L70.4535 501.098L32.8292 511.697C32.0573 505.583 27.3528 499.996 20.9208 499.445ZM32.2901 512.947L67.2681 502.985L107.11 491.712C108.249 493.537 109.854 494.971 111.998 495.155L112.427 495.191L119.667 531.668L31.1017 516.733C32.0695 515.52 32.1431 514.662 32.2901 512.947ZM117.744 513.791L114.142 495.338C116.36 494.664 118.222 493.096 119.263 491.025L195.21 491.919C195.137 492.776 195.1 493.205 195.492 493.671L137.665 523.275L121.419 531.386L117.744 513.791ZM195.81 494.994C196.95 496.82 198.555 498.253 201.128 498.474C203.272 498.657 205.06 497.947 206.494 496.342L255.818 540.745C255.316 541.566 254.813 542.387 254.311 543.208L123.098 531.962L195.81 494.994ZM261.184 538.613C259.469 538.466 258.146 538.785 256.749 539.961L207.033 495.092C207.535 494.271 207.609 493.413 207.682 492.555C207.756 491.698 207.829 490.84 207.437 490.374L312.837 460.096C313.976 461.922 315.581 463.355 318.154 463.576C320.727 463.796 323.018 462.264 324.059 460.194L372.268 507.526L390.988 525.978C389.518 528.012 388.477 530.083 388.22 533.085C388.146 533.943 388.073 534.801 388.428 535.695L266.354 543.808C265.754 540.733 263.757 538.834 261.184 538.613ZM402.615 521.359C398.756 521.028 394.75 522.413 392.348 525.231L325.027 458.981C325.064 458.552 325.1 458.123 325.137 457.694C325.174 457.265 325.211 456.836 325.247 456.408L435.45 420.493C436.234 421.424 437.055 421.926 438.304 422.465L421.997 471.612L405.151 522.008C404.759 521.543 403.473 521.432 402.615 521.359ZM627.456 160.9L571.601 96.9285C572.998 95.7522 573.537 94.5024 573.684 92.787C573.868 90.6427 573.157 88.8538 571.945 87.8859L605.048 54.435C606.261 55.4029 607.511 55.942 608.797 56.0523C609.226 56.089 610.083 56.1625 610.549 55.7704L623.388 127.719L629.281 159.76C628.387 160.116 627.921 160.508 627.456 160.9ZM602.916 49.0682C602.806 50.3548 603.088 52.107 603.872 53.0382L570.732 86.9179C569.911 86.4156 569.09 85.9132 567.804 85.8029C566.946 85.7294 566.088 85.6559 565.194 86.0113L537.028 -18.7872C538.351 -19.1058 539.246 -19.4611 539.748 -20.2821L587.884 27.9077L604.607 44.4611C604.068 45.711 603.063 47.3528 602.916 49.0682ZM570.744 -39.2255L539.662 -29.3615C538.45 -30.3295 537.2 -30.8686 535.913 -30.9788C534.627 -31.0891 533.304 -30.7705 532.41 -30.4151L486.957 -94.7911L525.5 -70.7515L570.61 -42.6931C570.573 -42.2643 570.071 -41.4433 570.034 -41.0145C570.426 -40.5489 570.818 -40.0833 570.744 -39.2255ZM531.478 -29.6309L531.013 -29.2388L484.923 -50.9012L430.906 -75.835C430.943 -76.2638 431.409 -76.6559 431.482 -77.5136L466.681 -90.0489L484.494 -96.2981L531.478 -29.6309ZM437.424 -81.3244L431.2 -79.2658C431.029 -82.3045 428.64 -84.6693 425.209 -84.9633C423.923 -85.0736 422.171 -84.7917 421.24 -84.0075L384.584 -119.981L361.086 -143.164C361.551 -143.556 361.588 -143.984 362.017 -143.948L482.461 -97.7685L437.424 -81.3244ZM202.209 -199.549C204.782 -199.328 207.036 -200.431 208.077 -202.502L280.63 -126.731C279.662 -125.518 278.694 -124.305 278.547 -122.59C278.547 -122.59 278.547 -122.59 278.511 -122.161L198.852 -125.1L141.564 -126.986C141.674 -128.273 140.927 -129.633 140.179 -130.993L142.078 -132.99L200.457 -199.267C201.388 -200.051 201.78 -199.586 202.209 -199.549ZM131.297 -123.114L60.1768 -49.2894C59.3927 -50.2206 58.1431 -50.7597 56.8567 -50.87C55.9991 -50.9435 54.6759 -50.6249 53.7815 -50.2695L13.0211 -88.7552L94.6405 -113.728L130.121 -124.511C130.513 -124.045 130.905 -123.58 131.297 -123.114ZM52.8505 -49.4853C51.4538 -48.309 50.0203 -46.7039 49.8365 -44.5596C49.7998 -44.1308 49.7263 -43.273 50.1183 -42.8074L15.1281 -27.6623L-48.1631 0.17724L-48.5552 -0.288376L12.09 -87.971L52.8505 -49.4853ZM-87.2698 -12.2466C-84.697 -12.0261 -82.8715 -13.1656 -81.4013 -15.1996L-69.0886 -7.66431L-57.2047 -0.165718C-58.6014 1.01058 -59.1405 2.26039 -59.2875 3.9758C-59.3977 5.26235 -59.0792 6.58565 -58.3319 7.94571L-124.784 72.6665L-126.683 74.6638C-127.112 74.627 -127.112 74.627 -127.541 74.5903L-124.919 69.199L-87.7353 -11.8545C-87.6986 -12.2833 -87.2698 -12.2466 -87.2698 -12.2466ZM-79.2575 30.3443L-57.5845 9.3058C-56.8005 10.237 -55.9796 10.7393 -54.6932 10.8496L-84.0727 116.764C-84.5015 116.727 -84.5015 116.727 -84.9303 116.691C-88.3607 116.396 -91.9014 117.389 -94.2659 119.778L-108.024 103.911L-124.919 84.319C-123.988 83.5348 -123.449 82.285 -123.302 80.5696C-123.118 78.4253 -124.221 76.1708 -125.825 74.7373L-79.2575 30.3443ZM-130.322 86.8799C-128.607 87.0269 -126.818 86.3163 -125.458 85.5688L-95.2338 120.991C-97.1328 122.989 -98.6765 125.88 -98.9337 128.882C-99.2646 132.742 -97.8802 136.749 -95.0623 139.15L-111.626 161.059L-136.007 193.529C-136.828 193.027 -138.077 192.488 -139.364 192.377L-130.322 86.8799ZM-140.994 261.79L-139.964 204.422C-139.535 204.459 -139.535 204.459 -139.107 204.496L-77.1515 318.238C-78.9402 318.949 -79.9448 320.591 -80.5574 322.698L-101.752 323.042L-134.599 323.25C-134.562 322.822 -134.525 322.393 -134.525 322.393C-134.231 318.962 -136.975 315.703 -140.406 315.409C-140.835 315.372 -141.692 315.298 -142.158 315.691L-140.994 261.79ZM-135.138 324.5L-80.6676 323.985C-80.5329 327.452 -78.1806 330.246 -74.7502 330.54L-74.3214 330.577L-73.2682 429.163C-74.1258 429.09 -74.5914 429.482 -75.0202 429.445L-121.453 356.345L-139.328 328.029C-137.539 327.319 -136.142 326.142 -135.138 324.5ZM30.9914 518.02L118.7 532.881L71.4211 560.365L66.4102 563.392C65.2341 561.995 63.9844 561.456 62.2692 561.309C60.9828 561.198 59.6597 561.517 58.7653 561.872L47.0775 547.047L27.5855 522.48C28.9822 521.304 29.9868 519.662 30.9914 518.02ZM122.559 533.212L254.201 544.495C253.907 547.926 256.651 551.185 260.081 551.479C262.225 551.663 264.014 550.952 265.448 549.347L267.837 551.711L336.212 610.708C335.71 611.529 335.207 612.35 335.134 613.208L232.319 608.284L200.478 606.851L122.559 533.212ZM341.578 608.576C339.863 608.429 338.074 609.14 337.143 609.924L266.415 548.134C266.918 547.313 266.991 546.455 267.065 545.597C267.102 545.168 267.102 545.168 267.138 544.74L360.972 538.526L389.212 536.626C389.812 539.702 391.736 542.459 394.161 544.395L344.114 609.225C343.293 608.723 342.436 608.649 341.578 608.576ZM413.85 531.394L515.66 492.6L516.052 493.065L484.81 524.948L457.832 552.444L413.654 538.721C414.156 537.9 414.266 536.614 414.34 535.756C414.487 534.041 414.168 532.717 413.85 531.394ZM413.531 530.071C412.539 526.529 409.758 523.699 406.83 522.584L426.089 464.187L439.983 423.041C441.269 423.151 442.592 422.833 443.952 422.085L514.888 486.485C514.851 486.914 514.385 487.306 514.312 488.164C514.202 489.451 514.557 490.345 514.912 491.24L413.531 530.071ZM522.153 482.356L544.904 383.218C545.762 383.291 546.191 383.328 547.048 383.401C550.907 383.732 554.485 382.311 557.315 379.529L594.878 409.965L609.825 422.046C609.788 422.475 609.751 422.904 609.714 423.333C609.604 424.619 609.923 425.942 610.67 427.302L561.59 460.68L526.723 484.476C525.081 483.471 523.868 482.503 522.153 482.356ZM616.195 418.272C615.767 418.235 615.767 418.235 615.338 418.199L619.026 309.65C622.456 309.944 625.287 307.163 625.581 303.732C625.617 303.303 625.617 303.303 625.654 302.874L658.488 292.728C658.696 295.338 660.265 297.201 662.764 298.279L657.189 312.921L616.624 418.309C616.624 418.309 616.624 418.309 616.195 418.272ZM665.545 285.989C662.115 285.695 658.892 288.011 658.562 291.871L651.909 293.892L625.728 302.016C625.091 299.37 622.665 297.434 620.092 297.213L630.751 172.846C634.182 173.14 637.44 170.396 637.734 166.965C637.882 165.25 637.171 163.461 636.387 162.529L651.248 150.411C652.032 151.342 653.245 152.31 654.531 152.421L665.937 286.455C665.545 285.989 665.545 285.989 665.545 285.989ZM652.522 140.584C651.126 141.761 650.121 143.402 649.974 145.118C649.864 146.404 650.182 147.728 650.537 148.622L635.248 160.704C634.464 159.773 633.214 159.233 631.927 159.123C631.499 159.086 631.07 159.05 630.212 158.976L626.929 141.847L611.48 54.9862C613.698 54.3123 615.168 52.2783 615.388 49.7052C615.609 47.1321 614.47 45.3064 612.436 43.8361L621.441 29.4878L652.522 140.584ZM621.085 28.5934L611.578 43.7626C611.149 43.7258 610.329 43.2235 609.471 43.15C609.042 43.1133 608.613 43.0765 608.185 43.0397L578.99 -34.6309L621.085 28.5934ZM571.614 -44.335L516.226 -78.4584L486.283 -97.0088L501.022 -102.658L504.599 -104.079C505.273 -101.861 507.699 -99.9254 509.843 -99.7416C511.987 -99.5579 513.775 -100.269 514.743 -101.482L571.614 -44.335ZM504.281 -105.402L484.641 -98.0136L367.554 -143.041L384.057 -139.035L504.072 -108.012C504.035 -107.583 503.999 -107.155 503.962 -106.726C504.354 -106.26 504.317 -105.831 504.281 -105.402ZM504.182 -109.299L363.021 -145.59C363.058 -146.018 363.095 -146.447 363.095 -146.447C363.389 -149.878 360.644 -153.137 357.214 -153.431C355.07 -153.615 353.281 -152.904 351.848 -151.299L293.151 -207.306C293.617 -207.698 294.119 -208.519 294.156 -208.948L504.182 -109.299ZM288.251 -205.566C289.966 -205.419 291.289 -205.738 292.22 -206.522L351.309 -150.049C351.272 -149.621 350.807 -149.229 350.807 -149.229L316.956 -162.498L209.192 -205.43C209.192 -205.43 209.192 -205.43 209.229 -205.859L282.444 -213.408C282.407 -212.979 282.407 -212.979 282.37 -212.55C282.076 -209.12 284.82 -205.86 288.251 -205.566ZM270.364 -213.579L249.022 -211.521L209.376 -207.575C208.739 -210.221 206.779 -212.549 203.777 -212.806C200.775 -213.064 198.448 -211.103 197.369 -208.604L173.932 -212.34L270.364 -213.579ZM166.14 -212.144L174.643 -210.551L196.794 -206.925L196.757 -206.496C196.683 -205.638 196.61 -204.781 196.965 -203.886L159.696 -192.392L93.1338 -171.745L166.14 -212.144ZM153.828 -189.439L197.32 -202.992C198.104 -202.061 198.889 -201.129 199.709 -200.627L154.697 -149.189L139.861 -132.316C139.077 -133.247 137.398 -133.823 136.112 -133.934C132.681 -134.228 129.422 -131.483 129.128 -128.052C129.055 -127.194 128.981 -126.337 129.337 -125.442L88.527 -112.956L13.1314 -90.0418L79.7796 -162.09C80.6005 -161.587 81.4213 -161.085 82.2789 -161.012C85.7094 -160.718 88.9682 -163.462 89.2623 -166.893C89.3358 -167.751 88.9805 -168.645 89.054 -169.503L153.828 -189.439ZM79.4244 -162.984L11.8082 -89.7231L-20.7929 -117.573C-20.6826 -118.86 -21.0378 -119.754 -21.8219 -120.686L78.3217 -165.239C78.677 -164.344 79.0323 -163.45 79.4244 -162.984ZM-32.3828 -113.383C-31.9907 -112.917 -31.1699 -112.415 -30.7778 -111.949L-80.2251 -28.9229L-83.239 -23.9972C-84.0598 -24.4995 -84.8807 -25.0019 -85.7383 -25.0754C-86.1671 -25.1121 -86.1671 -25.1121 -86.5959 -25.1489L-94.2774 -56.4794C-92.8807 -57.6557 -92.3417 -58.9055 -92.1946 -60.6209C-92.0476 -62.3363 -92.7582 -64.1252 -93.9343 -65.522L-32.3828 -113.383ZM-98.7492 -54.7027C-97.4628 -54.5924 -96.5684 -54.9477 -95.2453 -55.2663L-92.06 -42.0333L-87.9558 -24.4014C-90.6021 -23.7642 -92.5378 -21.3382 -92.7584 -18.765C-92.9789 -16.1919 -91.4842 -13.4718 -88.985 -12.3936L-128.79 74.0512C-131.792 73.7939 -134.083 75.3255 -135.161 77.8251L-138.592 77.5311L-98.7492 -54.7027ZM-139.559 78.7442L-136.129 79.0382C-136.166 79.467 -136.166 79.4671 -136.203 79.8959C-136.46 82.8979 -134.536 85.6547 -132 86.3041L-141.042 191.802C-144.081 191.973 -146.445 194.363 -146.739 197.793L-163.487 191.606C-163.45 191.177 -162.948 190.356 -162.911 189.927C-162.654 186.925 -164.577 184.168 -167.505 183.053L-139.559 78.7442ZM-168.4 198.529L-164.198 220.057L-144.841 316.757C-145.306 317.149 -145.809 317.97 -146.311 318.791L-158.072 304.822L-163.169 298.77L-168.4 198.529ZM-162.103 301.453L-147.242 319.575C-147.279 320.004 -147.316 320.433 -147.352 320.861C-147.61 323.863 -145.686 326.62 -142.758 327.735L-126.329 408.2L-162.103 301.453ZM-132.884 368.758L-141.472 327.845C-141.472 327.845 -141.472 327.845 -141.043 327.882L-122.776 356.664L-76.3433 429.764C-77.2377 430.119 -78.1688 430.903 -78.7079 432.153L-116.565 420.269C-116.528 419.84 -116.491 419.411 -116.455 418.982C-116.161 415.551 -118.905 412.292 -122.335 411.998C-122.764 411.961 -123.622 411.888 -124.087 412.28L-132.884 368.758ZM-117.104 421.518L-79.2469 433.403C-79.2837 433.832 -79.3205 434.261 -79.3572 434.69C-79.6513 438.12 -76.9069 441.38 -73.4765 441.674C-72.6189 441.747 -71.7613 441.821 -70.867 441.465L-49.8682 508.929C-50.7626 509.285 -51.2281 509.677 -51.6937 510.069L-118.145 423.589C-118.072 422.731 -117.606 422.339 -117.104 421.518ZM-43.8528 519.381C-43.816 518.952 -43.3873 518.989 -43.3505 518.56L-4.78286 517.114L7.37058 516.427C9.14702 520.9 13.1778 524.269 18.3234 524.71C21.325 524.967 23.9713 524.33 26.2623 522.799L38.3422 538.09L57.4421 562.191C56.0455 563.367 55.0408 565.009 54.8938 566.725L23.0032 570.903L-43.8528 519.381ZM101.339 619.522L25.037 572.374L48.6333 569.212L54.7468 568.44C54.9183 571.479 57.3073 573.843 60.7377 574.138C62.8817 574.321 65.136 573.218 66.5694 571.613L139.71 625.402C139.245 625.795 139.208 626.223 139.171 626.652L101.339 619.522ZM269.306 625.278L151.643 627.289C151.68 626.86 151.68 626.86 151.288 626.395L200.404 607.708L335.06 614.065L269.306 625.278ZM346.148 610.696C345.756 610.23 345.756 610.23 345.364 609.764L395.411 544.934C397.053 545.938 398.731 546.514 400.875 546.698C406.45 547.176 411.461 544.149 413.58 539.579L456.901 553.228L346.148 610.696ZM437.691 606.014C436.907 605.082 435.657 604.543 434.371 604.433C430.94 604.139 427.681 606.884 427.387 610.314L360.923 604.618L436.895 564.905L458.616 553.375L494.611 536.588L437.691 606.014ZM496.082 534.554L460.981 550.986L490.826 520.279L516.836 493.996C517.656 494.499 518.906 495.038 520.193 495.148C523.623 495.442 526.882 492.697 527.176 489.267C527.213 488.838 527.213 488.838 527.25 488.409L534.368 485.995L554.399 479.072L496.082 534.554ZM556.8 476.254L526.968 486.657C527.004 486.228 527.004 486.228 526.612 485.762L610.988 428.626C612.201 429.594 613.414 430.562 615.129 430.709C615.987 430.782 616.845 430.856 617.739 430.5L556.8 476.254ZM620.961 428.184C621.464 427.364 622.003 426.114 622.076 425.256C622.113 424.827 622.186 423.97 621.794 423.504L634.781 418.137L620.961 428.184ZM639.436 414.216L621.513 421.752C620.802 419.963 619.589 418.995 617.911 418.419L649.667 335.172L663.621 298.352L639.436 414.216Z" fill="white" fill-opacity="0.2"/>
</g>
<defs>
<filter id="filter0_f" x="-226" y="-270" width="953.58" height="962.69" filterUnits="userSpaceOnUse" color-interpolation-filters="sRGB">
<feFlood flood-opacity="0" result="BackgroundImageFix"/>
<feBlend mode="normal" in="SourceGraphic" in2="BackgroundImageFix" result="shape"/>
<feGaussianBlur stdDeviation="7.5" result="effect1_foregroundBlur"/>
</filter>
</defs>
</svg>
